<svg width="74" height="46" viewBox="0 0 74 46" fill="none" xmlns="http://www.w3.org/2000/svg">
<path d="M4.76049 22.1255C9.26049 19.1255 28.6205 8.74554 33.0205 5.96554M2.00049 19.7655C6.02049 15.9255 25.3005 4.14554 30.9205 2.24554M5.68978 27.2236C9.22978 29.3436 23.4498 36.3636 27.6298 38.3836M2.56978 25.6636C6.78978 27.0436 27.3298 32.7636 31.8498 34.4036M29.8961 43.4456C30.1161 37.0256 32.7361 11.9856 33.0961 5.46561M33.1161 41.6056C33.1161 34.4256 32.1161 7.74562 31.6761 2.00562M34.3606 23.2155C41.0406 23.0355 64.8206 21.3555 71.2606 21.1555M31.9206 21.9155C38.4606 22.1355 62.5806 25.0555 69.2806 24.3955" stroke="#1E1E1E" stroke-width="4" stroke-linecap="round"/>
</svg>
