<svg width="1185" height="1162" viewBox="0 0 1185 1162" fill="none" xmlns="http://www.w3.org/2000/svg">
<path d="M664.529 0.278667C662.395 0.545334 654.262 1.47867 646.529 2.27867C603.329 6.94533 548.395 31.212 509.862 62.6787C493.329 76.2787 465.862 104.279 454.529 119.345L451.062 123.745L435.462 113.479C403.462 92.4121 380.662 83.2121 360.529 82.9454C350.262 82.8121 347.462 83.3453 341.062 86.2787C316.795 97.7453 304.262 123.745 299.729 172.145C296.529 208.012 302.529 275.612 312.795 316.412L314.795 324.812L307.462 332.679C291.462 350.012 288.395 369.345 299.595 381.212C303.729 385.612 312.129 390.145 322.529 393.479C326.529 394.812 329.995 396.012 330.262 396.145C330.529 396.279 328.262 402.412 325.462 409.612C322.529 416.945 318.262 428.812 315.862 436.145C313.462 443.479 311.062 450.012 310.529 450.545C309.995 451.079 305.462 449.212 300.395 446.279C289.329 439.879 270.795 433.479 257.195 431.345C243.195 429.212 211.862 430.545 195.195 434.145C167.462 440.012 143.062 450.145 126.929 462.279C123.062 465.212 115.862 472.412 110.929 478.412C104.929 485.612 100.129 490.012 96.5287 491.612L91.1954 494.012L86.5287 488.945C79.5954 481.345 71.4621 477.745 61.8621 477.745C55.0621 477.745 50.6621 479.079 33.1954 486.145C10.3954 495.479 4.39539 500.012 1.46206 509.745C-1.73794 520.279 -0.671272 525.212 14.7954 572.545C31.0621 622.412 32.6621 625.745 44.3954 631.745C54.1287 636.945 64.1287 635.879 84.3954 627.612C93.8621 623.879 103.862 619.479 106.662 618.145C115.062 613.745 121.195 603.345 121.195 593.345C121.195 588.145 124.795 585.079 132.395 583.879C138.395 582.945 148.529 586.545 151.195 590.545C152.129 592.145 161.462 626.812 171.862 667.479C182.262 708.145 191.729 744.945 192.795 749.079L194.795 756.679L188.662 763.612C159.462 796.145 153.595 849.745 174.662 892.145C187.462 917.879 211.062 937.479 237.595 944.412C245.595 946.545 246.395 947.079 247.062 950.812C249.995 965.479 265.995 1022.41 268.529 1026.81C275.195 1038.28 286.929 1045.21 299.862 1045.21C308.795 1045.35 363.062 1030.28 371.329 1025.35C376.529 1022.41 381.462 1017.48 384.529 1012.15C385.862 1009.88 387.062 1010.01 402.929 1014.81C422.262 1020.68 421.062 1019.08 418.529 1036.81C416.129 1054.01 413.062 1102.01 412.795 1126.55L412.529 1151.61L416.929 1155.61C420.395 1158.68 422.529 1159.48 427.329 1159.48C432.529 1159.48 434.129 1158.81 437.995 1154.95C441.462 1151.48 442.529 1149.21 442.529 1145.75C442.529 1126.41 446.929 1062.68 450.795 1025.48C453.462 999.612 453.329 999.479 415.862 987.079L387.195 977.479L378.262 951.479C373.329 937.212 365.995 916.145 361.995 904.812L354.529 884.145L357.862 873.745C362.395 859.745 364.262 846.679 363.595 833.345C363.462 827.212 363.329 822.145 363.329 822.145C363.462 822.145 365.995 823.079 369.062 824.145C382.929 828.945 418.262 838.412 436.529 842.012C471.729 849.079 497.862 850.545 507.195 846.012C513.329 843.079 517.595 835.879 516.795 829.612C515.729 821.745 510.662 817.879 492.529 810.812C450.262 794.145 418.395 773.612 393.462 746.679C381.329 733.612 367.462 715.079 361.195 703.212L341.625 661.879L341.462 661.345C338.795 652.945 326.662 591.079 326.662 589.745L325.729 581.345C325.329 576.679 325.595 562.412 326.395 549.479C327.195 536.679 327.862 525.212 327.862 524.145C327.862 522.679 329.329 522.145 333.195 522.145C340.395 522.145 346.529 519.345 350.929 514.279C357.862 505.879 354.929 492.812 342.929 479.479L337.062 472.812L342.395 454.945C347.862 436.812 360.662 402.545 362.262 401.745C362.795 401.479 368.262 401.612 374.529 402.279C440.662 408.145 562.395 411.079 650.529 408.945C759.329 406.279 843.729 399.345 905.329 388.145C927.462 384.145 962.662 374.145 973.062 368.945C980.929 364.812 989.729 356.412 991.862 350.679C993.729 345.879 993.462 337.479 991.329 332.279C986.662 321.212 960.795 310.412 909.195 298.279C859.862 286.545 806.395 278.679 743.329 273.479C730.262 272.545 719.329 271.345 718.929 270.945C717.995 270.012 721.062 236.145 723.862 215.212C728.529 181.345 737.462 148.412 749.862 118.812C759.862 94.9454 775.062 72.5453 793.595 54.2787L802.262 45.7453L813.462 49.4787C848.529 60.9454 889.862 85.4788 916.795 110.812C927.462 120.679 943.995 140.012 953.062 153.345L957.462 159.745L937.595 179.879C908.529 209.479 895.862 227.079 895.862 237.879C895.862 242.812 896.662 244.545 900.529 248.412C904.929 252.812 905.729 253.079 911.329 252.412C914.662 252.145 918.529 250.679 920.129 249.345C921.595 247.879 928.929 238.679 936.262 228.812C943.595 218.945 955.729 204.812 963.062 197.479C1003.46 157.212 1070.8 118.145 1099.86 118.145C1112 118.145 1118.8 124.545 1124.13 140.679C1126.53 148.279 1126.93 153.612 1127.6 180.545C1128.53 226.279 1124.8 264.145 1112.4 336.679C1109.06 356.145 1106.66 374.412 1106.93 377.079C1107.33 379.745 1110.66 388.679 1114.53 396.812C1128.93 427.879 1139.2 458.412 1145.6 489.612C1151.6 518.412 1152.53 528.012 1152.4 560.812C1152.4 586.679 1151.86 595.079 1149.46 608.812C1135.86 687.612 1095.86 748.679 1028.13 793.879C1010.93 805.345 1002.66 809.879 984.129 817.345C965.862 824.812 962.262 827.879 962.262 836.012C962.262 842.145 965.329 846.945 971.195 849.745C975.462 851.745 976.395 851.745 984.129 849.612C994.795 846.679 1014.13 838.279 1025.73 831.479C1030.8 828.545 1035.33 826.145 1036 826.145C1036.66 826.145 1041.33 830.145 1046.53 834.945C1061.2 848.812 1090.26 888.545 1103.6 912.812C1123.2 948.679 1140 1006.28 1147.06 1062.15C1150 1084.68 1153.2 1124.41 1153.2 1137.88C1153.2 1150.55 1155.2 1155.75 1161.2 1158.81C1169.73 1163.21 1180.53 1158.95 1183.33 1150.15C1185.6 1142.41 1182.53 1092.95 1177.06 1052.81C1163.33 951.212 1131.86 879.479 1075.46 821.345L1062.4 807.745L1076.13 796.545C1145.73 739.212 1183.86 656.945 1184.13 563.479C1184.4 503.345 1170.26 441.345 1143.86 385.745L1138.4 374.012L1143.73 342.412C1160.53 243.745 1164.13 176.145 1154.4 137.479C1148.66 114.812 1136.93 98.012 1121.33 90.5454C1097.86 79.3454 1048.8 94.4121 997.462 128.945C989.995 134.012 983.329 138.145 982.795 138.145C982.262 138.145 979.462 134.679 976.529 130.412C967.862 118.012 932.795 83.8788 915.195 70.8121C871.062 37.8788 842.395 23.8788 792.529 10.8121C760.395 2.27878 745.995 0.545367 705.195 0.145367C685.062 -0.1213 666.795 0.0120007 664.529 0.278667ZM749.195 33.4787C756.929 34.6787 763.462 35.8787 763.729 36.1454C763.995 36.5454 760.929 40.8121 756.795 45.8788C731.729 76.9454 715.195 111.879 703.329 159.079C695.862 188.812 691.995 215.612 688.395 259.879C687.729 268.679 687.329 270.145 685.595 269.479C684.395 269.079 657.462 268.412 625.595 267.879L567.862 267.079V264.012C567.862 247.745 575.595 199.079 581.729 176.545C597.062 120.679 625.462 65.7453 652.795 39.212L659.195 32.9454L673.195 31.612C691.995 29.8787 731.862 30.9454 749.195 33.4787ZM607.062 45.7453C575.195 93.8787 554.129 145.612 543.995 200.145C540.929 216.279 537.195 243.345 536.395 255.879L535.462 268.545L523.995 269.479C501.595 271.079 470.795 274.279 445.329 277.479C414.662 281.479 417.329 281.345 417.995 278.412C438.929 182.012 481.462 116.412 553.195 69.7453C568.129 60.1453 602.662 43.0787 609.062 42.1454C609.329 42.1454 608.395 43.7453 607.062 45.7453ZM377.329 116.679C381.329 118.012 387.595 120.679 391.462 122.545C398.395 126.145 423.062 142.279 429.595 147.745L433.329 150.812L424.662 167.479C406.262 203.079 391.729 245.212 386.529 278.412L384.795 288.545L376.662 291.612C372.262 293.212 362.929 297.212 355.995 300.412C349.062 303.612 343.195 305.879 342.929 305.612C341.729 304.412 335.862 272.812 333.595 255.612C330.395 230.812 330.262 166.279 333.462 151.479C339.329 124.145 347.195 114.145 362.662 114.145C366.795 114.145 373.329 115.212 377.329 116.679ZM687.195 300.945C787.862 305.479 888.662 320.812 940.395 339.612C953.995 344.545 953.995 344.545 935.729 349.479C886.662 362.679 807.595 371.879 699.195 376.945C660.662 378.812 475.329 377.745 433.195 375.612C380.662 372.812 352.262 369.612 336.395 364.679C329.195 362.412 327.862 361.612 327.862 359.079C327.862 350.545 359.462 330.679 389.195 320.412C409.995 313.345 457.195 305.612 502.529 302.012C547.595 298.412 622.529 298.012 687.195 300.945ZM257.995 461.479C270.262 463.745 284.662 470.279 295.195 478.279C302.662 483.879 305.862 487.745 304.262 489.345C303.862 489.745 300.129 490.145 295.995 490.145C284.929 490.145 265.595 492.412 256.529 494.812C236.529 499.879 222.129 511.345 214.129 528.412C210.529 536.279 209.862 539.212 209.462 551.079L208.929 564.545L177.462 576.279L171.995 570.012C168.262 565.612 163.329 562.012 156.262 558.545C147.329 554.145 145.062 553.612 136.662 553.745C130.929 553.745 124.662 554.812 120.529 556.279L113.995 558.812L109.729 542.145C107.329 532.945 105.062 524.545 104.662 523.479C104.129 522.012 105.995 520.412 111.729 517.745C117.462 515.212 121.729 511.745 126.795 506.012C146.662 483.079 151.729 478.945 170.129 471.612C179.462 467.745 197.729 462.945 210.529 460.945C222.529 459.079 246.795 459.345 257.995 461.479ZM65.8621 511.612C73.3287 520.679 79.5954 536.545 86.9287 565.479C88.7954 572.812 90.6621 581.879 90.9287 585.745L91.4621 592.545L74.9287 598.945C65.8621 602.412 58.1287 604.812 57.7287 604.545C57.4621 604.145 50.9287 585.079 43.4621 562.145L29.7287 520.412L36.5287 517.479C53.0621 510.279 59.3287 507.612 60.7954 507.612C61.5954 507.479 63.8621 509.345 65.8621 511.612ZM296.795 529.079C294.395 544.145 294.929 595.612 297.595 613.479C309.062 689.479 344.662 752.279 402.262 797.345C406.795 800.945 410.529 804.012 410.529 804.145C410.529 804.945 383.995 796.679 369.195 791.345L353.729 785.745L349.195 777.745C339.995 761.612 317.329 742.412 300.929 736.679C297.995 735.612 295.462 733.745 295.062 732.279C285.862 702.145 257.595 624.545 246.262 598.545C239.595 583.079 239.462 582.545 239.062 567.479C238.129 538.412 245.062 527.612 267.195 523.612C279.462 521.345 281.329 521.212 289.995 520.945L298.129 520.812L296.795 529.079ZM216.929 604.279C226.662 629.079 242.929 673.345 251.995 699.612L262.262 729.612L250.795 731.079C244.395 731.879 235.329 733.879 230.662 735.479C225.995 736.945 222.129 738.145 221.862 737.879C221.062 736.812 187.595 604.679 187.995 604.279C189.595 603.212 211.329 595.745 212.529 596.012C213.195 596.145 215.195 599.879 216.929 604.279ZM276.529 760.812C310.662 766.412 335.062 800.945 332.795 840.812C331.462 864.279 324.129 882.812 310.262 897.612C292.395 916.679 263.729 922.679 238.395 912.812C211.729 902.279 193.195 871.079 193.195 836.679C193.195 813.079 199.862 795.612 214.529 780.679C231.062 763.745 252.529 756.945 276.529 760.812ZM347.862 956.412C354.395 975.612 359.862 992.279 359.862 993.745C359.862 995.212 359.062 997.212 358.262 998.412C356.662 1000.41 304.662 1015.48 299.595 1015.48C298.262 1015.48 296.395 1013.88 295.329 1011.75C293.329 1007.88 280.529 960.812 279.062 952.012L278.262 946.679L287.329 944.945C299.195 942.545 317.329 933.345 326.529 925.079C331.595 920.412 334.129 918.945 334.795 920.145C335.329 920.945 341.195 937.345 347.862 956.412Z" fill="black"/>
<path d="M426.5 1145.5L1170.5 1146.5" stroke="black" stroke-width="28"/>
<path d="M1048.53 204.012C1038.93 206.279 1023.86 214.679 1008.53 226.012C993.329 237.346 973.996 256.012 971.862 261.346C970.129 266.012 970.129 272.279 971.862 275.612C973.729 278.946 988.396 288.812 1011.33 301.879C1021.46 307.746 1037.86 317.346 1047.73 323.346C1057.46 329.212 1066.93 334.146 1068.66 334.146C1072.4 334.146 1076.66 330.279 1078.66 325.346C1081.06 318.812 1082.8 288.279 1082 266.812C1080.53 227.612 1074.13 208.679 1060.8 203.612C1056.4 201.879 1057.2 201.879 1048.53 204.012Z" fill="black"/>
<path d="M852.129 487.612C838.796 490.145 827.329 499.345 820.796 512.412C807.196 539.345 817.329 574.812 842.129 586.945C857.462 594.545 877.062 590.545 888.929 577.612C895.462 570.545 899.196 563.479 901.862 553.212C911.329 517.079 884.129 481.212 852.129 487.612Z" fill="black"/>
<path d="M477.595 490.812C468.395 495.479 458.129 506.812 454.395 516.545C448.395 532.145 449.862 554.679 457.995 568.412C475.995 599.212 517.462 597.612 533.195 565.612C543.862 543.879 540.662 517.079 525.462 500.545C517.195 491.612 509.462 488.279 495.862 487.745C485.729 487.345 483.729 487.745 477.595 490.812Z" fill="black"/>
<path d="M602.929 558.812C596.395 561.612 593.862 566.679 593.995 576.812C594.262 605.346 613.462 626.146 639.329 626.146C649.462 626.146 659.862 621.746 668.262 614.146L675.462 607.612L680.662 612.946C683.462 616.012 688.929 620.012 692.529 621.879C701.462 626.679 718.529 626.946 728.129 622.546C736.795 618.546 745.462 610.146 749.595 601.612C753.862 592.946 756.662 578.146 755.329 571.212C752.929 558.012 738.129 553.346 729.195 562.812C726.662 565.479 725.995 568.146 725.195 577.612C724.129 591.212 721.329 595.212 711.995 596.412C706.795 597.079 706.129 596.812 700.795 591.212C697.062 587.346 694.129 582.279 691.862 576.146C687.862 564.946 682.795 560.812 673.595 560.812C668.529 560.812 666.795 561.612 663.195 565.212C660.662 567.746 658.129 572.146 657.195 575.612C654.795 584.679 649.862 592.146 644.662 594.679C639.062 597.346 636.795 597.346 631.862 594.812C625.595 591.612 623.862 587.879 623.862 577.746C623.862 566.679 621.329 561.346 615.195 558.679C609.595 556.412 608.395 556.412 602.929 558.812Z" fill="black"/>
<path d="M939.862 995.612C934.662 997.745 930.662 1002.15 929.729 1006.81C929.196 1009.88 930.262 1014.01 933.596 1022.28C946.262 1053.08 953.996 1088.81 957.196 1132.95C958.796 1153.75 959.862 1156.68 966.796 1160.28C974.929 1164.55 984.796 1160.01 987.996 1150.55C990.929 1141.61 984.662 1087.75 977.196 1058.01C970.129 1029.75 958.662 1000.41 953.596 997.345C949.596 994.945 943.462 994.145 939.862 995.612Z" fill="black"/>
</svg>
