<?xml version="1.0" standalone="no"?>
<!DOCTYPE svg PUBLIC "-//W3C//DTD SVG 20010904//EN"
 "http://www.w3.org/TR/2001/REC-SVG-20010904/DTD/svg10.dtd">
<svg version="1.0" xmlns="http://www.w3.org/2000/svg"
 width="1024.000000pt" height="1536.000000pt" viewBox="0 0 1024.000000 1536.000000"
 preserveAspectRatio="xMidYMid meet">

<g transform="translate(0.000000,1536.000000) scale(0.100000,-0.100000)"
fill="#000000" stroke="none">
<path d="M4985 14693 c-158 -57 -239 -153 -277 -326 -21 -100 8 -219 78 -325
l36 -55 -17 -36 c-9 -20 -40 -74 -68 -121 -190 -318 -318 -435 -477 -435 -61
0 -76 5 -191 62 -114 57 -332 193 -387 242 -23 20 -23 20 -6 68 26 69 23 220
-4 292 -44 114 -117 184 -228 221 -52 18 -83 21 -157 18 -110 -4 -180 -32
-255 -102 -117 -109 -160 -220 -133 -348 28 -134 104 -236 224 -299 l65 -33
11 -86 c16 -122 61 -514 61 -533 0 -11 -63 29 -182 115 -223 160 -277 194
-443 275 -229 112 -372 143 -500 108 -90 -24 -143 -73 -195 -178 -50 -104 -76
-203 -100 -392 -57 -445 -52 -1144 11 -1493 l11 -62 -40 -63 c-194 -297 -328
-864 -321 -1357 l3 -175 -50 -65 c-103 -135 -149 -277 -148 -450 2 -149 16
-214 70 -327 38 -79 58 -106 135 -183 l92 -90 -23 -52 c-34 -78 -38 -186 -11
-260 27 -69 88 -129 160 -155 l51 -18 0 -251 0 -250 -70 -48 c-201 -138 -284
-301 -284 -561 0 -150 21 -243 80 -356 43 -81 141 -184 217 -228 l56 -32 3
-357 c3 -318 5 -361 21 -397 23 -51 79 -109 137 -143 25 -14 46 -26 48 -27 1
-1 -27 -47 -64 -101 -215 -321 -317 -675 -316 -1094 0 -210 17 -363 67 -615
55 -274 110 -449 193 -608 l46 -88 -17 -122 c-68 -473 -74 -1011 -16 -1425 62
-452 157 -597 397 -609 104 -6 205 20 355 90 131 62 199 105 431 276 113 83
208 151 211 151 2 0 2 -21 -1 -48 -10 -96 -25 -209 -36 -270 l-10 -62 -63 -35
c-169 -95 -249 -272 -200 -440 38 -131 82 -186 200 -246 84 -42 88 -43 188
-44 96 0 107 2 169 33 87 43 146 109 188 209 29 70 32 84 27 148 -3 38 -16 98
-28 133 -11 35 -20 64 -18 66 102 78 287 195 411 258 l102 53 96 0 c112 0 138
-11 265 -110 82 -65 228 -209 259 -257 17 -26 17 -28 -8 -61 -36 -47 -55 -96
-65 -172 -24 -168 48 -328 184 -406 49 -28 54 -29 192 -29 142 0 143 0 193 31
90 55 154 151 180 269 17 79 0 184 -46 278 l-36 73 29 37 c52 68 167 184 248
248 104 84 165 107 266 102 67 -4 89 -11 172 -52 119 -59 322 -185 377 -234
l41 -37 -20 -45 c-37 -85 -45 -135 -32 -208 29 -163 139 -283 288 -316 91 -20
145 -20 214 0 111 33 175 90 230 208 48 103 56 165 31 263 -34 136 -98 219
-199 260 -51 21 -46 5 -73 228 -12 94 -24 178 -27 189 -3 11 50 -23 133 -87
171 -128 444 -309 519 -342 273 -121 443 -134 551 -41 76 65 141 220 174 416
83 490 78 1228 -9 1594 l-19 79 54 101 c65 124 114 270 153 458 45 223 56 333
55 568 0 195 -3 226 -27 334 -36 160 -84 260 -193 393 l-26 33 31 97 c61 194
80 365 88 808 8 478 -20 914 -78 1205 -28 141 -97 349 -159 479 -57 117 -164
283 -263 406 -63 77 -211 226 -272 274 -19 15 -25 25 -17 28 25 9 199 127 293
199 120 93 304 281 388 399 81 114 228 413 280 570 82 249 116 498 108 790
-10 337 -80 658 -209 960 -19 44 -57 116 -85 160 l-51 81 19 119 c33 206 52
579 45 860 -13 471 -60 792 -146 981 -83 183 -233 232 -485 155 -177 -53 -342
-140 -600 -314 -126 -86 -231 -154 -233 -152 -4 3 55 546 64 587 4 20 18 33
52 50 69 33 167 135 198 203 39 89 47 144 35 226 -18 115 -87 222 -174 273
-91 53 -243 71 -344 41 -76 -23 -169 -89 -208 -149 -64 -96 -83 -260 -43 -373
15 -42 15 -42 -16 -71 -48 -46 -221 -156 -347 -220 -218 -111 -315 -107 -453
19 -86 78 -213 265 -306 449 l-30 60 36 56 c57 89 77 155 77 259 0 127 -25
189 -112 276 -85 85 -147 111 -281 116 -73 3 -107 -1 -145 -14z m203 -217 c81
-42 133 -169 102 -250 -17 -47 -78 -103 -125 -116 -69 -19 -112 -6 -166 50
-60 62 -85 130 -69 190 26 96 175 169 258 126z m-1827 -396 c100 -28 150 -170
94 -267 -34 -57 -68 -73 -154 -73 -65 0 -73 2 -107 32 -88 78 -83 200 11 275
52 42 93 50 156 33z m3639 -15 c53 -27 100 -111 100 -177 0 -49 -30 -99 -79
-130 -42 -27 -52 -29 -108 -25 -76 6 -104 22 -139 83 -48 82 -24 188 55 241
41 27 126 31 171 8z m-1767 -207 c13 -18 62 -98 107 -177 170 -294 311 -440
479 -491 81 -25 157 -25 257 0 110 28 227 88 458 234 109 69 202 126 207 126
5 0 28 -9 52 -21 l43 -21 -23 -197 c-12 -108 -36 -290 -52 -406 -17 -115 -35
-255 -42 -310 -6 -55 -13 -101 -14 -103 -1 -1 -83 15 -181 37 -431 97 -820
135 -1364 134 -566 -1 -1037 -43 -1443 -128 -92 -19 -171 -35 -176 -35 -5 0
-11 15 -15 33 -10 58 -85 638 -101 787 -8 80 -17 157 -18 172 -3 25 0 28 48
39 43 10 56 9 76 -3 13 -9 69 -44 124 -80 163 -105 304 -184 408 -228 88 -37
108 -42 205 -47 129 -6 186 10 286 81 127 90 230 220 387 482 l92 154 88 0
c88 0 88 0 112 -32z m2818 -678 c29 -16 53 -73 87 -205 70 -278 86 -445 87
-905 0 -408 -9 -529 -56 -712 -10 -42 -19 -86 -19 -97 0 -11 20 -51 44 -88 96
-150 173 -334 225 -538 71 -284 110 -594 96 -780 -19 -257 -103 -588 -198
-776 -141 -279 -364 -519 -662 -711 -233 -150 -512 -264 -825 -336 -511 -119
-792 -142 -1694 -142 -544 0 -779 7 -1001 31 -113 12 -421 61 -535 85 -263 56
-552 156 -871 303 l-66 30 -12 60 c-6 33 -25 85 -40 116 l-29 57 88 87 c94 93
153 183 192 291 19 55 23 85 22 195 0 147 -21 244 -76 347 -57 107 -193 235
-315 297 l-42 21 22 57 c17 45 21 81 22 158 0 89 -3 105 -27 151 -48 92 -135
149 -277 180 -76 17 -159 15 -231 -6 -97 -27 -197 -118 -220 -198 -16 -61 -12
-210 9 -269 20 -58 18 -63 -15 -63 l-24 0 4 133 c4 138 36 401 62 513 20 88
78 280 116 384 40 109 86 201 155 308 l55 86 -26 121 c-43 195 -57 339 -63
660 -4 233 -2 342 11 490 25 292 59 481 105 587 30 70 43 77 137 67 104 -11
152 -27 304 -105 207 -106 415 -243 620 -407 l106 -85 47 -323 c27 -178 55
-343 63 -366 18 -50 60 -88 114 -104 41 -12 113 -6 285 25 71 13 188 25 530
56 371 33 1104 38 1515 10 197 -13 569 -54 726 -81 115 -19 124 -19 163 -3 49
19 87 62 100 112 6 20 29 177 52 347 22 171 43 321 46 335 10 55 453 355 725
491 160 80 211 100 288 109 36 4 69 8 73 9 5 0 17 -4 28 -9z m-2438 -750 c222
-13 486 -37 612 -56 229 -33 462 -90 458 -111 -2 -7 -10 -61 -18 -120 -25
-170 -18 -156 -73 -149 -26 4 -103 18 -172 31 -306 58 -727 85 -1324 85 -541
0 -941 -29 -1335 -95 -79 -14 -148 -25 -152 -25 -7 0 -33 135 -45 231 l-6 57
88 20 c273 63 560 103 914 127 242 16 823 18 1053 5z m-3415 -2286 c65 -32 86
-68 80 -136 -9 -85 -60 -118 -185 -118 -74 0 -107 11 -128 43 -22 34 -30 117
-15 161 25 76 147 100 248 50z m156 -517 c145 -72 243 -178 281 -303 21 -70
29 -208 16 -279 -24 -129 -124 -262 -242 -323 l-62 -32 -252 0 -252 0 -63 32
c-80 39 -178 137 -215 213 -47 96 -53 260 -15 397 15 52 83 149 140 201 48 43
153 104 227 132 28 10 79 14 189 12 l151 -2 97 -48z m25 -1171 c48 -26 68
-108 35 -154 -15 -22 -17 -22 -305 -22 l-290 0 -24 25 c-28 27 -35 98 -12 128
21 30 66 35 320 36 196 1 254 -2 276 -13z m269 -339 l61 -33 -139 -139 -140
-140 0 135 1 135 72 36 c40 20 74 37 77 38 3 0 34 -14 68 -32z m-418 -272 l0
-215 -124 0 -125 0 -1 215 -1 215 126 0 125 0 0 -215z m721 131 c104 -46 510
-158 689 -190 276 -49 667 -90 983 -102 97 -4 177 -8 177 -10 0 -9 -66 -200
-91 -262 l-29 -73 0 -503 0 -503 -252 -7 c-262 -7 -526 -25 -733 -51 -466 -58
-906 -197 -1169 -368 -80 -53 -84 -54 -90 -34 -3 12 -6 130 -6 262 l0 241 30
17 c52 31 150 128 192 190 125 184 152 435 68 647 -36 91 -126 216 -196 273
l-63 52 62 65 c69 73 371 380 373 380 1 0 26 -11 55 -24z m4580 -48 c171 -151
354 -381 455 -572 44 -84 53 -108 38 -102 -87 36 -110 39 -334 37 -251 -2
-324 -10 -420 -48 -177 -70 -291 -187 -352 -363 -20 -57 -23 -84 -23 -215 1
-130 4 -159 24 -215 32 -90 101 -190 169 -245 54 -43 202 -125 248 -137 23 -6
40 -48 19 -48 -7 0 -59 22 -116 49 -336 157 -711 225 -1399 254 l-285 12 -5
515 -5 515 -54 148 c-29 82 -49 152 -45 157 5 4 135 13 289 19 509 21 888 72
1253 167 153 39 333 96 395 124 23 11 47 20 54 20 7 0 49 -33 94 -72z m-2350
-307 c19 -23 135 -292 156 -360 10 -34 13 -147 13 -488 l0 -443 -230 0 -231 0
3 483 3 482 72 160 c40 88 82 168 93 177 29 23 98 17 121 -11z m-2993 -206
c169 -35 259 -101 328 -241 31 -63 37 -85 42 -163 9 -166 -33 -285 -134 -381
-106 -101 -234 -136 -407 -111 -100 14 -173 49 -248 119 -91 84 -119 147 -126
282 -7 128 13 210 75 305 69 107 118 140 272 181 102 28 110 28 198 9z m5764
-357 c67 -31 147 -103 182 -162 33 -56 49 -154 44 -268 -4 -116 -27 -168 -112
-254 -105 -105 -235 -142 -511 -143 -89 -1 -196 24 -275 64 -52 26 -121 98
-152 159 -70 138 -48 367 47 492 34 44 74 71 164 111 l76 33 240 -2 c237 -3
241 -3 297 -30z m-5722 -1038 c0 -331 -3 -347 -72 -375 -52 -21 -79 -19 -119
8 -57 38 -59 47 -59 337 0 146 3 275 6 287 8 28 18 30 142 32 l102 1 0 -290z
m6010 -173 c-1 -301 -11 -582 -23 -593 -2 -3 -27 11 -56 30 -28 19 -75 40
-106 46 l-55 11 0 362 0 362 49 18 c28 9 78 37 113 60 35 24 66 42 71 40 4 -2
7 -154 7 -336z m-2150 264 c511 -43 807 -110 1193 -271 l78 -32 -2 -250 -1
-249 -47 -24 c-96 -49 -141 -125 -141 -241 0 -71 26 -153 61 -190 l21 -23 -61
-82 c-122 -161 -171 -288 -178 -465 -5 -107 -3 -131 17 -195 43 -144 148 -276
300 -378 48 -32 93 -60 100 -63 10 -3 7 -19 -10 -63 -18 -45 -24 -81 -24 -145
-1 -74 3 -92 26 -136 36 -69 124 -147 195 -174 104 -39 145 -44 235 -32 141
20 231 78 289 184 32 59 34 69 34 158 0 82 -4 103 -26 151 l-27 56 62 41 c33
22 89 69 124 105 59 62 62 64 62 37 0 -42 -27 -192 -59 -325 -43 -176 -96
-326 -159 -449 l-55 -109 26 -131 c53 -260 62 -372 62 -741 -1 -333 -8 -468
-41 -700 -43 -303 -87 -405 -178 -405 -106 0 -462 190 -711 378 -150 114 -345
284 -349 305 -13 59 -68 415 -80 515 -16 132 -37 169 -110 197 -54 21 -116 17
-256 -14 -161 -36 -563 -73 -1010 -92 -518 -23 -1275 17 -1615 84 -192 38
-275 41 -325 11 -61 -35 -74 -67 -94 -220 -16 -131 -59 -417 -72 -476 -9 -44
-318 -305 -524 -443 -134 -89 -381 -215 -458 -233 -172 -39 -211 13 -261 348
-59 406 -69 751 -32 1180 12 139 22 202 52 338 l21 93 -56 97 c-67 119 -124
262 -176 447 -171 603 -154 1095 51 1525 194 406 524 691 1037 895 257 101
778 192 1242 215 239 12 1687 5 1850 -9z m1709 -426 l2 -355 -114 0 -115 0 -7
93 c-3 51 -1 182 5 291 9 144 9 201 1 209 -6 6 -11 35 -11 64 l0 53 119 0 118
0 2 -355z m255 -587 c9 -12 16 -39 16 -60 0 -66 -5 -67 -348 -69 -346 -2 -342
-3 -342 77 0 70 -3 70 348 73 l310 2 16 -23z m3 -375 c111 -55 198 -161 230
-280 24 -91 22 -273 -5 -345 -44 -120 -136 -217 -265 -278 -141 -68 -267 -64
-447 14 -155 67 -257 156 -314 276 -27 56 -31 78 -34 160 -3 78 0 108 18 160
40 122 96 200 190 271 l65 49 253 0 253 0 56 -27z m-154 -1155 c44 -22 61
-131 31 -193 -26 -56 -57 -70 -149 -69 -98 1 -140 19 -162 72 -25 60 0 168 44
187 50 22 196 24 236 3z m-4042 -1438 c371 -67 821 -95 1399 -87 552 8 847 30
1163 88 88 16 169 29 181 29 21 0 23 -6 38 -147 11 -96 13 -150 7 -154 -16
-10 -326 -69 -414 -79 -44 -5 -159 -18 -255 -30 -254 -29 -480 -40 -875 -40
-490 0 -766 19 -1125 75 -91 15 -389 81 -396 88 -2 2 3 39 11 82 8 44 14 108
15 143 l0 62 44 0 c24 0 117 -13 207 -30z m-16 -535 c389 -77 567 -93 1105
-102 709 -11 1158 25 1635 131 61 13 111 23 112 22 4 -4 85 -525 98 -631 7
-60 10 -113 6 -117 -3 -3 -23 -11 -44 -16 -37 -10 -40 -9 -184 85 -200 131
-369 226 -461 260 -66 24 -91 28 -177 28 -112 -1 -175 -21 -277 -88 -79 -53
-242 -201 -337 -307 l-83 -93 -115 0 -115 0 -72 82 c-89 102 -259 257 -346
316 -89 61 -166 87 -270 92 -73 3 -96 0 -165 -24 -97 -34 -407 -209 -530 -300
l-87 -64 -50 18 c-47 17 -49 19 -44 48 3 16 19 138 36 270 29 226 56 405 65
432 5 15 21 13 300 -42z m-415 -920 c56 -29 90 -92 90 -167 0 -107 -100 -173
-222 -146 -52 10 -90 46 -116 108 -26 64 4 164 62 201 45 28 134 30 186 4z
m3533 11 c67 -28 115 -118 101 -191 -8 -42 -86 -117 -141 -136 -93 -30 -213
62 -213 166 0 125 135 211 253 161z m-1776 -137 c69 -26 112 -100 113 -193 0
-111 -68 -172 -187 -164 -67 4 -100 21 -137 72 -17 22 -21 42 -20 102 0 65 4
79 30 117 48 68 127 94 201 66z"/>
<path d="M2413 12636 c-65 -55 -83 -175 -83 -556 0 -426 31 -538 142 -516 39
8 57 21 299 226 300 252 319 275 304 358 -5 30 -27 57 -119 147 -118 117 -327
295 -387 333 -20 12 -56 25 -81 28 -38 5 -48 3 -75 -20z"/>
<path d="M7721 12638 c-70 -20 -276 -183 -442 -348 -112 -112 -138 -154 -123
-198 8 -22 392 -375 547 -502 55 -45 86 -50 135 -20 62 38 66 59 70 414 4 335
-8 558 -34 608 -8 15 -22 31 -32 36 -30 16 -86 21 -121 10z"/>
<path d="M3584 10479 c-192 -26 -334 -206 -334 -424 0 -171 92 -326 233 -391
53 -25 75 -29 147 -29 71 0 94 4 142 27 169 79 259 259 230 459 -35 242 -205
387 -418 358z"/>
<path d="M6540 10476 c-180 -40 -292 -183 -307 -391 -13 -188 71 -346 224
-422 51 -24 69 -28 148 -28 77 0 98 4 147 27 146 68 228 208 228 388 0 224
-125 394 -314 429 -33 6 -62 11 -65 10 -3 0 -31 -6 -61 -13z"/>
<path d="M5044 9821 c-40 -18 -54 -50 -54 -130 0 -138 -66 -216 -180 -216 -98
1 -163 59 -176 158 -10 70 -38 97 -101 97 -26 0 -53 -4 -59 -8 -23 -15 -34
-53 -34 -121 0 -168 109 -302 279 -341 111 -26 223 5 339 92 l62 48 48 -37
c76 -58 164 -95 242 -101 218 -15 384 124 398 333 4 69 3 74 -25 105 -26 29
-36 33 -73 32 -63 -3 -86 -22 -100 -84 -17 -71 -56 -132 -103 -158 -32 -18
-50 -21 -103 -18 -113 7 -154 59 -154 196 0 79 -1 84 -34 119 -30 33 -39 37
-92 40 -32 1 -69 -1 -80 -6z"/>
<path d="M4683 4816 c-79 -26 -162 -96 -199 -169 -55 -106 -68 -244 -29 -287
14 -15 31 -20 72 -20 69 0 85 16 118 124 32 106 65 140 145 149 70 8 128 -16
168 -72 25 -35 30 -52 35 -131 8 -109 20 -139 68 -164 33 -18 42 -19 94 -7 87
20 95 32 95 151 0 62 5 113 14 133 42 102 189 126 280 47 39 -34 51 -62 66
-145 5 -33 17 -66 25 -74 7 -8 38 -16 68 -19 65 -5 89 13 107 80 14 52 8 99
-26 183 -36 90 -89 147 -182 192 -73 36 -80 38 -177 38 -93 0 -105 -2 -166
-32 -36 -18 -83 -46 -104 -63 l-38 -30 -40 36 c-70 64 -137 88 -252 91 -64 2
-115 -2 -142 -11z"/>
<path d="M3525 4475 c-101 -38 -195 -143 -237 -264 -30 -87 -30 -226 0 -318
40 -126 127 -225 231 -264 78 -29 184 -24 263 13 296 137 306 655 16 813 -46
25 -66 30 -143 32 -61 2 -103 -2 -130 -12z"/>
<path d="M6477 4466 c-154 -65 -234 -187 -244 -376 -12 -204 74 -368 232 -446
51 -25 71 -29 140 -29 97 1 169 30 243 99 212 199 159 616 -95 740 -83 41
-196 46 -276 12z"/>
<path d="M2450 2617 c-54 -19 -68 -54 -80 -201 -14 -172 -13 -646 1 -742 15
-101 43 -134 116 -141 43 -5 60 -1 109 26 78 41 171 116 325 261 160 151 219
240 198 296 -4 12 -63 68 -131 125 -68 57 -187 159 -266 226 -78 68 -153 129
-165 137 -34 22 -69 26 -107 13z"/>
<path d="M7694 2594 c-21 -15 -66 -50 -99 -78 -460 -398 -475 -413 -461 -472
9 -36 244 -274 369 -375 170 -137 260 -166 318 -101 34 38 46 79 59 203 16
156 8 537 -16 739 -13 103 -87 140 -170 84z"/>
</g>
</svg>
