<svg width="762" height="652" viewBox="0 0 762 652" fill="none" xmlns="http://www.w3.org/2000/svg">
<rect x="79.5" y="206.5" width="596" height="432" rx="39.5" fill="white" stroke="black" stroke-width="27"/>
<path d="M23.1794 331.014L87.4699 209.014C92.66 199.165 102.877 193 114.01 193H652.301C671.267 193 685.474 210.379 681.702 228.966L656.947 350.966C654.109 364.95 641.815 375 627.546 375H49.7197C27.1377 375 12.6516 350.992 23.1794 331.014Z" fill="white" stroke="black" stroke-width="27"/>
<path d="M663.5 628.5L708.55 559.257C714.38 550.296 717.364 539.78 717.109 529.092L708 146.5M708 146.5L663.5 194.5M708 146.5H187.557C186.864 146.5 186.183 146.68 185.581 147.022L102 194.5" stroke="black" stroke-width="27"/>
<path d="M701.162 349.656L677.722 203.064C677.578 202.165 677.746 201.243 678.197 200.452L710.196 144.306C712.029 141.09 716.871 141.874 717.594 145.504L747.362 294.791C748.097 298.479 747.51 302.308 745.703 305.606L719.807 352.881C715.23 361.238 702.667 359.065 701.162 349.656Z" fill="#FFFEFE" stroke="black" stroke-width="27"/>
</svg>
