<svg width="756" height="652" viewBox="0 0 756 652" fill="none" xmlns="http://www.w3.org/2000/svg">
<path d="M340.652 56.7376L375.117 5.06608L411.609 30.3953L450.129 71.9351L480.539 122.593V180.344L503.854 210.739L534.264 285.713V332.319L540.346 401.214L579.879 358.661L586.975 298.884L567.715 240.121L579.879 210.739L613.33 201.62L644.754 237.081L660.973 295.845L648.809 369.806L609.275 427.557L549.469 462.004L493.717 468.083L453.17 480.241L371.062 489.36H326.461L255.504 484.294L199.752 462.004L155.15 411.346L150.082 369.806L178.465 342.451L217.998 347.516L266.654 329.279V295.845L206.848 237.081L181.506 80.0404L251.449 89.1589L340.652 56.7376Z" fill="white"/>
<path d="M361.061 11.3475C355.114 17.8317 345.923 29.9897 340.788 38.3653C333.489 50.2531 329.434 54.0356 324.839 54.0356C314.838 54.0356 289.969 64.3023 274.291 74.8393L260.234 84.2955L234.014 79.9726C181.844 71.327 172.383 74.5691 172.383 101.317C172.383 120.499 179.141 153.191 186.439 169.672C188.602 179.331 192.927 206.686 192.927 206.686L200.225 228.57L204.009 240.458C204.009 240.458 229.419 276.392 242.123 284.767C249.963 289.901 257.531 294.494 259.153 295.034C261.045 295.575 261.586 301.248 260.234 311.245C258.342 326.105 258.072 326.375 248.611 328.266C243.205 329.347 233.473 332.859 226.716 336.101C215.633 341.775 213.47 342.045 206.172 338.803C188.061 330.968 165.084 337.992 151.839 355.554C144.811 364.47 144 367.712 144 385.274C144 403.376 144.541 405.537 154.813 420.397C169.139 441.2 189.413 463.085 200.766 470.109C205.902 473.352 216.444 478.215 224.283 481.187L238.609 486.59C239.285 486.651 251.409 488.482 238.609 486.59C238.609 486.59 319.703 493.885 330.245 496.317C340.517 499.019 350.519 499.559 357.277 498.478C377.28 494.966 469.727 480.106 469.727 480.106L505.948 472.541C550.28 473.352 582.177 460.113 614.344 427.962C627.589 414.723 636.78 402.565 644.348 387.435C660.297 356.635 663 344.477 663 303.95C663 264.504 657.864 243.971 642.186 220.465C627.859 198.581 600.558 190.746 581.095 202.633C563.255 213.711 559.741 237.216 571.905 266.666C578.122 282.606 579.203 288.55 579.203 313.406C579.203 340.154 578.663 343.126 570.283 359.877C562.714 375.277 544.333 396.891 541.089 393.919C540.548 393.379 541.359 384.733 542.981 374.467C547.306 347.179 542.17 285.308 533.52 260.181C524.87 234.514 511.895 210.739 498.92 195.879C488.648 184.261 488.378 183.451 490 169.402C491.622 157.514 489.73 139.412 485.405 121.85C485.405 121.85 479.188 105.099 475.403 98.6149C472.43 93.2114 461.888 78.8919 461.888 78.3516C456.752 81.5937 461.888 78.0814 461.888 78.3516L445.669 58.3584C423.233 30.8003 386.2 0 375.658 0C373.495 0 366.738 5.13338 361.061 11.3475ZM396.404 23.3031C396.404 20.2636 413.637 40.0951 413.637 40.0951L419.719 46.2004L426.833 55.3865L448.102 78.6218L452.156 83.0799L464.32 100.304C464.32 100.304 469.727 108.882 469.186 109.422C469.186 109.422 477.295 122.12 478.377 145.086C479.728 169.942 478.917 176.696 474.592 169.131C470.808 162.377 446.48 151.3 431.883 149.408C408.366 146.707 387.011 161.837 382.145 185.072C380.794 191.286 382.145 196.689 387.011 205.876C394.039 219.114 392.958 221.546 380.794 221.546C373.495 221.546 354.303 236.676 349.167 246.402C339.706 264.504 352.141 331.508 368.63 351.231C385.119 370.414 403.776 362.714 416.678 362.714C418.705 362.714 434.924 347.516 434.924 347.516C434.924 347.516 448.642 326.915 450.264 295.034L451.616 267.476H461.347C474.052 267.746 490.811 275.311 504.056 287.469C537.305 317.459 541.089 382.302 512.436 426.341C489.459 461.734 457.022 479.836 411.339 483.348C397.283 484.159 385.93 484.429 385.93 483.889C385.93 483.348 387.822 480.646 390.255 477.945C392.688 475.243 395.12 468.488 395.931 462.544C397.013 453.629 394.039 444.713 373.495 398.512C360.25 369.333 347.816 344.477 345.923 343.936C334.841 339.343 337.544 349.88 361.331 401.754C374.847 431.474 385.93 457.411 385.93 459.573C385.93 461.734 384.308 465.787 382.416 468.488C380.523 468.488 385.119 472.811 382.416 468.488C382.416 468.488 374.847 481.187 365.386 485.239C351.6 491.183 335.922 486.32 335.922 486.32C322.947 486.32 303.214 449.306 283.752 388.516C274.831 361.498 268.073 317.459 270.777 306.652C272.128 300.978 273.209 300.438 281.048 302.869C291.05 305.571 318.352 306.111 324.839 303.68C327.272 302.869 329.164 299.897 329.164 297.466C329.164 293.683 325.65 293.143 305.106 293.143C282.4 292.873 279.427 292.332 260.505 282.606C242.123 273.15 221.039 248.834 221.039 248.834L214.957 239.108L209.956 226.949C208.064 221.005 204.009 199.594 204.009 181.828C204.009 164.062 198.738 196.555 198.738 196.555C198.738 196.555 211.848 158.594 220.228 142.384C228.067 126.984 181.506 84.2955 181.506 84.2955C181.506 84.2955 177.248 84.0253 214.822 88.8885C244.827 92.9412 248.881 94.0219 246.989 98.8851C244.556 105.369 252.395 103.208 267.263 92.9412C286.455 79.9726 317.541 65.383 331.327 63.2216C341.328 61.6005 343.22 59.9795 352.141 44.5793C364.034 24.316 375.117 11.1451 380.523 12.158C385.93 13.1709 396.404 23.3031 396.404 23.3031ZM419.719 46.2004L413.637 40.0951C413.637 40.0951 396.404 20.2636 396.404 23.3031C396.404 23.3031 413.637 40.0951 419.719 46.2004ZM198.738 196.555L212.659 131.306L180.492 84.0931C176.708 91.1177 198.738 193.853 198.738 196.555C198.738 196.555 194.008 163.728 190.223 145.086C184.277 115.636 181.506 84.2955 181.506 84.2955C182.587 84.5657 191.71 190.341 198.738 196.555ZM449.453 166.97C481.08 182.1 512.166 227.49 526.492 279.094C533.52 304.49 533.25 312.866 525.952 297.736C514.869 274.771 486.486 256.939 459.184 255.858C452.967 255.588 448.102 254.508 448.102 253.427C448.102 248.834 427.288 228.57 418.908 225.058C407.825 220.465 394.039 199.661 394.039 187.503C394.039 177.507 399.986 169.402 411.609 163.458C423.233 157.784 431.072 158.324 449.453 166.97ZM614.884 212.36C627.319 218.304 636.509 231.272 644.619 253.157C670.839 325.294 634.888 416.344 567.039 449.576C544.873 460.383 518.113 466.597 506.489 463.625L499.191 461.734L510.273 449.036C516.491 442.011 524.6 430.664 528.114 423.639C532.439 414.993 537.575 409.59 544.063 406.618C566.769 395.54 587.313 362.579 592.178 328.536C595.152 307.192 591.638 285.308 580.555 255.588C573.797 236.946 574.878 225.328 584.069 216.953C594.881 207.226 601.369 206.146 614.884 212.36ZM410.798 233.704C424.855 239.378 436.478 254.237 438.911 268.827C441.344 286.118 435.938 324.213 429.18 337.722C418.367 358.796 392.688 362.579 379.442 345.017C375.928 340.154 371.063 331.778 368.63 326.105C364.305 315.027 356.195 273.96 356.195 261.532C356.195 251.536 368.359 238.567 381.875 233.704C395.661 228.841 399.445 228.841 410.798 233.704ZM263.478 357.175C267.533 383.112 280.508 422.018 295.645 453.629C302.133 467.678 306.998 479.566 306.188 480.376C305.377 481.187 290.509 480.646 272.669 479.025C226.175 474.973 200.766 462.274 178.87 431.474C173.194 423.639 165.084 413.372 161.03 408.509C141.838 385.814 159.948 347.719 190.223 347.719C205.631 347.719 213.741 353.663 227.797 375.007C234.014 385.003 241.853 395.54 245.097 398.242C250.773 403.376 250.773 403.376 250.773 397.972C250.773 390.947 238.609 368.523 229.689 358.796C225.905 354.744 223.472 350.421 224.553 349.61C226.716 347.449 253.477 337.992 257.531 337.722C259.153 337.722 261.856 346.638 263.478 357.175Z" fill="black"/>
<path d="M375.117 99.9658C367.819 107.261 368.359 114.015 376.739 124.012C384.578 133.468 389.984 134.278 398.905 128.064C407.014 122.391 406.744 109.692 398.094 101.317C390.255 93.2114 382.416 92.671 375.117 99.9658Z" fill="black"/>
<path d="M363.223 135.359C362.413 137.521 361.602 141.573 361.061 144.545C359.709 152.11 352.141 152.651 343.761 146.166C338.355 141.843 335.652 141.303 332.948 143.464C330.786 145.086 329.975 147.787 330.786 149.138C331.597 150.489 331.597 154.542 330.786 158.324C328.894 165.349 321.595 166.97 316.459 161.837C314.567 159.945 311.323 159.405 308.891 160.486C302.944 162.647 308.35 172.373 317.541 175.886C327.002 179.398 333.759 176.696 338.625 167.51C342.139 160.756 343.761 159.945 352.952 161.296C365.386 162.917 372.414 157.514 372.414 146.166C372.414 137.521 365.116 129.145 363.223 135.359Z" fill="black"/>
<path d="M264.289 154.001C257.261 161.026 257.531 170.212 264.559 179.398C275.102 192.907 291.32 185.342 291.32 166.7C291.32 150.759 275.372 142.924 264.289 154.001Z" fill="black"/>
<rect x="72.5" y="199.5" width="610" height="446" rx="46.5" fill="white" stroke="black" stroke-width="13"/>
<path d="M23.1794 331.014L87.4699 209.014C92.66 199.165 102.877 193 114.01 193H652.301C671.267 193 685.474 210.379 681.702 228.966L656.946 350.966C654.109 364.95 641.815 375 627.546 375H49.7197C27.1377 375 12.6516 350.992 23.1794 331.014Z" fill="white" stroke="black" stroke-width="13"/>
<path d="M675 623.5L711.04 557.356C715.279 549.576 717.5 540.858 717.5 531.998V197C717.5 182.088 705.412 170 690.5 170H490.5M102 194.5L151.167 170.408C151.715 170.14 152.317 170 152.927 170H186.5M680.5 231.5L708 175.5" stroke="black" stroke-width="13"/>
<path d="M702.475 357.864L677.887 204.093C677.649 202.609 678.264 201.117 679.479 200.231L707.215 179.992C709.504 178.321 712.757 179.496 713.451 182.243L748.406 320.639C749.715 325.818 748.352 331.309 744.773 335.275L719.774 362.983C714.146 369.221 703.801 366.159 702.475 357.864Z" fill="#FFFEFE" stroke="black" stroke-width="13"/>
</svg>
