<svg width="94" height="94" viewBox="0 0 94 94" fill="none" xmlns="http://www.w3.org/2000/svg">
<path d="M86.1668 74.4167C86.1668 76.4942 85.3415 78.4866 83.8725 79.9557C82.4035 81.4247 80.411 82.25 78.3335 82.25H15.6668C13.5893 82.25 11.5969 81.4247 10.1278 79.9557C8.65879 78.4866 7.8335 76.4942 7.8335 74.4167V19.5833C7.8335 17.5058 8.65879 15.5134 10.1278 14.0443C11.5969 12.5753 13.5893 11.75 15.6668 11.75H35.2502L39.1668 17.625L43.0835 23.5H78.3335C80.411 23.5 82.4035 24.3253 83.8725 25.7943C85.3415 27.2634 86.1668 29.2558 86.1668 31.3333V74.4167Z" fill="white"/>
<path d="M83.8725 79.9557C85.3415 78.4866 86.1668 76.4942 86.1668 74.4167V31.3333C86.1668 29.2558 85.3415 27.2634 83.8725 25.7943C82.4035 24.3253 80.411 23.5 78.3335 23.5H43.0835L39.1668 17.625M83.8725 79.9557C82.4035 81.4247 80.411 82.25 78.3335 82.25H15.6668C13.5893 82.25 11.5969 81.4247 10.1278 79.9557C8.65879 78.4866 7.8335 76.4942 7.8335 74.4167V19.5833C7.8335 17.5058 8.65879 15.5134 10.1278 14.0443C11.5969 12.5753 13.5893 11.75 15.6668 11.75H35.2502L39.1668 17.625M83.8725 79.9557L86.1668 52.875M33.5 11.75L39.1668 17.625" stroke="black" stroke-width="4" stroke-linecap="round" stroke-linejoin="round"/>
<path d="M31.4497 52.6844C36.2149 52.5365 53.7001 54.6695 59.4543 55.0501M28.3745 52.1854C33.7991 51.5907 59.0862 53.6896 64.8013 53.6994M47.0247 65.7946C46.321 60.2947 44.5015 40.9307 44.4366 36.3164M47.449 71.8044C46.7662 66.7596 45.5973 46.5368 44.7433 40.6174" stroke="#1E1E1E" stroke-width="3" stroke-linecap="round"/>
</svg>
