<svg width="100" height="101" viewBox="0 0 100 101" fill="none" xmlns="http://www.w3.org/2000/svg">
<path d="M97 50.5C97 76.7335 75.7335 98 49.5 98C23.2665 98 2 76.7335 2 50.5C2 24.2665 23.2665 3 49.5 3C75.7335 3 97 24.2665 97 50.5Z" fill="white"/>
<path d="M48.9664 23.8447C50.3064 23.6047 51.9664 25.1047 53.4864 26.0047C55.0064 26.9047 57.4264 28.0047 58.1064 29.2847C58.8064 30.5447 58.4064 32.7447 57.6664 33.6647C56.9064 34.5847 55.0864 34.2647 53.5864 34.8047C52.0864 35.3447 50.3264 37.1447 48.6664 36.8647C47.0064 36.6047 44.8464 34.5047 43.6064 33.1447C42.3464 31.7847 41.3264 30.0447 41.1664 28.7247C40.9864 27.4247 41.0664 26.0847 42.5864 25.3047C44.1064 24.5247 49.2664 24.0447 50.2864 24.0447C51.3064 24.0447 49.0264 25.2447 48.6864 25.2847M47.9064 22.4247C49.7264 22.0447 50.6464 24.2247 52.5064 24.8247C54.3864 25.4247 58.3264 25.2047 59.1464 26.0647C59.9864 26.9047 58.4664 28.1647 57.4664 29.9447C56.4464 31.7247 54.3664 35.6847 53.1064 36.7447C51.8264 37.7847 51.5464 36.2447 49.8064 36.2647C48.0664 36.2647 43.8464 37.9047 42.6464 36.7647C41.4464 35.6247 42.8264 30.8847 42.6464 29.4447C42.4864 28.0247 40.5064 28.9447 41.6064 28.1447C42.7264 27.3447 48.5864 25.3647 49.3464 24.6447C50.1264 23.9447 46.3864 23.8047 46.2464 23.8447" fill="#1E1E1E"/>
<path d="M58.1064 29.2847L56.3401 30.223L56.3489 30.2396L56.3581 30.256L58.1064 29.2847ZM57.6664 33.6647L59.2083 34.9385L59.2166 34.9284L59.2248 34.9182L57.6664 33.6647ZM48.6664 36.8647L48.999 34.8926L48.9874 34.8906L48.9759 34.8888L48.6664 36.8647ZM43.6064 33.1447L45.0843 31.7972L45.0789 31.7913L45.0735 31.7855L43.6064 33.1447ZM41.1664 28.7247L43.1518 28.4841L43.1498 28.4672L43.1475 28.4504L41.1664 28.7247ZM52.5064 24.8247L51.8924 26.7281L51.8983 26.73L52.5064 24.8247ZM59.1464 26.0647L57.6989 27.4449L57.7153 27.4621L57.7322 27.4789L59.1464 26.0647ZM57.4664 29.9447L59.2017 30.9391L59.2059 30.9317L59.21 30.9243L57.4664 29.9447ZM53.1064 36.7447L54.3676 38.2969L54.3808 38.2862L54.3939 38.2752L53.1064 36.7447ZM49.8064 36.2647V38.2647H49.8179L49.8294 38.2646L49.8064 36.2647ZM42.6464 29.4447L40.6589 29.6687L40.6603 29.6807L40.6618 29.6928L42.6464 29.4447ZM41.6064 28.1447L40.4439 26.5173L40.4369 26.5222L40.43 26.5272L41.6064 28.1447ZM49.3464 24.6447L48.0106 23.1562L47.9905 23.1743L47.9709 23.1928L49.3464 24.6447ZM49.6223 21.3049C48.5178 21.3182 47.6332 22.2243 47.6465 23.3288C47.6598 24.4333 48.566 25.3179 49.6705 25.3046L49.6223 21.3049ZM56.3264 25.3247L55.1383 26.9336L55.1522 26.9438L55.1662 26.9539L56.3264 25.3247ZM57.5464 28.9847L59.5456 28.9284L59.5452 28.9137L59.5445 28.8991L57.5464 28.9847ZM56.5864 33.7847L54.8238 32.8396L54.8157 32.8547L54.8078 32.87L56.5864 33.7847ZM53.2064 37.3247L53.8642 39.2134L53.8709 39.2111L53.2064 37.3247ZM45.9464 37.5247L46.4314 35.5844L46.4265 35.5832L45.9464 37.5247ZM43.1264 29.2647L45.0973 29.6045L45.0979 29.6008L43.1264 29.2647ZM43.8864 24.0047L42.7007 22.394L42.697 22.3968L43.8864 24.0047ZM51.8264 22.8647L52.199 20.8997L52.1826 20.8966L52.1662 20.8938L51.8264 22.8647ZM49.4322 23.8705C48.6511 24.6516 48.6511 25.9179 49.4322 26.6989C50.2132 27.48 51.4795 27.48 52.2606 26.6989L49.4322 23.8705ZM49.6384 23.6207C48.5868 23.2827 47.4603 23.8611 47.1223 24.9127C46.7843 25.9643 47.3628 27.0908 48.4143 27.4288L49.6384 23.6207ZM56.8464 26.7447L57.466 24.8431L57.4563 24.84L57.4466 24.8369L56.8464 26.7447ZM59.7064 28.9047L61.7061 28.8749L61.7061 28.8744L59.7064 28.9047ZM56.9464 34.7047L58.2928 36.1836L58.2988 36.1781L58.3047 36.1726L56.9464 34.7047ZM48.1864 36.3647L48.7991 34.4609L48.7928 34.4589L48.1864 36.3647ZM41.1264 32.9047L42.9382 32.0576L42.9334 32.0476L41.1264 32.9047ZM43.8464 27.0847L45.4541 28.2744L45.4597 28.2668L45.4652 28.2592L43.8464 27.0847ZM48.9664 22.0047L49.2282 23.9875L49.2494 23.9847L49.2705 23.9815L48.9664 22.0047ZM51.3966 27.8735C52.4729 28.1219 53.5468 27.4507 53.7951 26.3744C54.0435 25.2982 53.3724 24.2243 52.2961 23.9759L51.3966 27.8735ZM48.0009 51.2616C48.0128 50.1571 47.1271 49.252 46.0226 49.2401C44.9181 49.2282 44.0131 50.1139 44.0012 51.2184L48.0009 51.2616ZM46.4611 82.0047C46.4527 83.1093 47.3412 84.0115 48.4458 84.0199C49.5503 84.0284 50.4526 83.1398 50.461 82.0353L46.4611 82.0047ZM52.1166 50.1326C52.1899 49.0305 51.3558 48.0776 50.2536 48.0044C49.1515 47.9312 48.1987 48.7653 48.1254 49.8674L52.1166 50.1326ZM45.6101 84.5004C45.4225 85.5889 46.1529 86.6234 47.2414 86.811C48.33 86.9985 49.3644 86.2681 49.552 85.1796L45.6101 84.5004ZM45.2426 0.796165C44.15 0.958365 43.3958 1.97558 43.558 3.06817C43.7202 4.16077 44.7374 4.915 45.83 4.7528L45.2426 0.796165ZM77.4963 12.4745L76.3167 14.0896L76.3193 14.0914L77.4963 12.4745ZM36.5963 96.6945L36.0453 98.6171L36.05 98.6184L36.5963 96.6945ZM2.27631 47.5145L0.290388 47.2776L0.290333 47.2781L2.27631 47.5145ZM47.5163 4.19448L46.7209 2.35945L46.715 2.36201L47.5163 4.19448ZM46.3695 3.72524C46.2429 4.82253 47.0298 5.81469 48.1271 5.9413C49.2243 6.06791 50.2165 5.28102 50.3431 4.18373L46.3695 3.72524ZM51.4994 0.015962C50.3957 0.0584141 49.5353 0.987597 49.5778 2.09135C49.6202 3.1951 50.5494 4.05546 51.6532 4.01301L51.4994 0.015962ZM81.3963 16.0745L80.0052 17.5114L80.0072 17.5134L81.3963 16.0745ZM96.6763 45.6345L98.6578 45.363L98.6577 45.3625L96.6763 45.6345ZM89.7963 77.2745L91.4388 78.4156L91.4394 78.4148L89.7963 77.2745ZM62.0563 95.4945L61.4652 93.5838L61.4617 93.5849L62.0563 95.4945ZM4.07631 40.9745L2.11 40.6089L2.10931 40.6127L4.07631 40.9745ZM19.0363 13.5745L20.2711 15.1478L20.273 15.1463L19.0363 13.5745ZM51.4363 3.77448L50.7929 1.88078L50.7841 1.88382L51.4363 3.77448ZM48.1728 2.28181C47.8013 3.32203 48.3434 4.46646 49.3836 4.83797C50.4239 5.20948 51.5683 4.66738 51.9398 3.62716L48.1728 2.28181ZM95 50.5C95 75.629 74.629 96 49.5 96V100C76.8381 100 99 77.8381 99 50.5H95ZM49.5 96C24.371 96 4 75.629 4 50.5H1.00608e-08C1.00608e-08 77.8381 22.1619 100 49.5 100V96ZM4 50.5C4 25.371 24.371 5 49.5 5V1C22.1619 1 1.00608e-08 23.1619 1.00608e-08 50.5H4ZM49.5 5C74.629 5 95 25.371 95 50.5H99C99 23.1619 76.8381 1 49.5 1V5ZM49.319 25.8134C49.2015 25.8344 49.3775 25.7667 50.1397 26.2181C50.4662 26.4114 50.8085 26.6416 51.2084 26.9115C51.588 27.1677 52.0272 27.465 52.4674 27.7257L54.5054 24.2838C54.1856 24.0944 53.8473 23.8668 53.4462 23.596C53.0655 23.3391 52.624 23.0405 52.178 22.7764C51.3952 22.3128 50.0712 21.615 48.6138 21.876L49.319 25.8134ZM52.4674 27.7257C52.8801 27.9701 53.3546 28.2284 53.7856 28.4669C54.234 28.715 54.6617 28.9558 55.0548 29.2004C55.4512 29.447 55.7705 29.6719 56.0088 29.8764C56.1256 29.9767 56.2088 30.0601 56.2658 30.1256C56.3234 30.1919 56.3411 30.2249 56.3401 30.223L59.8726 28.3464C59.2539 27.1817 58.0366 26.3445 57.1679 25.8041C56.6811 25.5012 56.1762 25.2182 55.7222 24.9669C55.2506 24.706 54.8526 24.4894 54.5054 24.2838L52.4674 27.7257ZM56.3581 30.256C56.4196 30.3667 56.5195 30.7453 56.4425 31.349C56.408 31.6191 56.3446 31.8725 56.2686 32.0793C56.2311 32.1813 56.194 32.2624 56.1619 32.3225C56.1461 32.3522 56.1328 32.3743 56.1228 32.3898C56.1126 32.4054 56.1073 32.412 56.1079 32.4112L59.2248 34.9182C59.9052 34.0723 60.2775 32.8951 60.4103 31.8555C60.5432 30.8141 60.4932 29.4627 59.8547 28.3134L56.3581 30.256ZM56.1244 32.391C56.2325 32.2602 56.3259 32.2431 56.2447 32.2722C56.1454 32.3078 55.9678 32.3491 55.6285 32.3963C55.0945 32.4705 53.9177 32.5598 52.9089 32.9229L54.2638 36.6865C54.755 36.5097 55.2383 36.4889 56.1792 36.3582C56.8472 36.2653 58.2735 36.07 59.2083 34.9385L56.1244 32.391ZM52.9089 32.9229C52.3432 33.1266 51.815 33.4242 51.3918 33.6773C50.8768 33.9852 50.6171 34.1612 50.1857 34.4105C49.3536 34.8914 49.0607 34.903 48.999 34.8926L48.3337 38.8369C49.932 39.1065 51.3491 38.3581 52.187 37.8739C52.5906 37.6407 53.1559 37.283 53.4447 37.1103C53.8252 36.8827 54.0795 36.7528 54.2638 36.6865L52.9089 32.9229ZM48.9759 34.8888C48.7018 34.8459 48.0981 34.5566 47.234 33.8601C46.4426 33.2221 45.6696 32.4392 45.0843 31.7972L42.1285 34.4922C42.7831 35.2102 43.7102 36.1573 44.7237 36.9743C45.6647 37.7328 46.971 38.6236 48.3569 38.8406L48.9759 34.8888ZM45.0735 31.7855C43.9338 30.5553 43.2381 29.1955 43.1518 28.4841L39.1809 28.9654C39.4147 30.8939 40.7589 33.0141 42.1392 34.504L45.0735 31.7855ZM43.1475 28.4504C43.0701 27.8917 43.0938 27.5876 43.1464 27.4208C43.1666 27.3568 43.1895 27.3184 43.2184 27.2846C43.2487 27.2492 43.3239 27.1742 43.4995 27.0841L41.6733 23.5253C40.4535 24.1512 39.6848 25.0969 39.3313 26.2186C39.0089 27.2418 39.0826 28.2578 39.1853 28.999L43.1475 28.4504ZM43.4995 27.0841C43.6301 27.0171 44.0166 26.8839 44.7111 26.7334C45.3549 26.5938 46.1181 26.4689 46.892 26.3642C48.4728 26.1503 49.9123 26.0447 50.2864 26.0447V22.0447C49.6404 22.0447 47.9899 22.1792 46.3557 22.4003C45.5221 22.5131 44.6466 22.6544 43.8635 22.8242C43.1312 22.983 42.3026 23.2024 41.6733 23.5253L43.4995 27.0841ZM50.2864 26.0447C50.2669 26.0447 50.1584 26.0447 50.0027 26.0098C49.8746 25.981 49.5017 25.8836 49.1467 25.5461C48.704 25.1255 48.5038 24.5374 48.5548 23.9751C48.5956 23.5251 48.783 23.2242 48.8518 23.1213C48.9937 22.909 49.128 22.8178 49.0771 22.858C49.0628 22.8694 49.0166 22.9032 48.9317 22.9567C48.7633 23.0625 48.5461 23.1805 48.3564 23.2717C48.2624 23.3169 48.1955 23.3457 48.1607 23.3595C48.0557 23.4009 48.2054 23.3275 48.4527 23.2984L48.9201 27.271C49.2524 27.2319 49.5477 27.1123 49.6284 27.0804C49.7794 27.0209 49.9385 26.9494 50.09 26.8765C50.3917 26.7314 50.7444 26.5419 51.0611 26.3428C51.2186 26.2437 51.3937 26.1257 51.5589 25.995C51.6876 25.8932 51.9596 25.6698 52.1772 25.3444C52.2838 25.1849 52.4935 24.8322 52.5384 24.3363C52.5936 23.7282 52.3794 23.1001 51.9022 22.6466C51.5125 22.2763 51.0844 22.153 50.8777 22.1066C50.6436 22.0542 50.4333 22.0447 50.2864 22.0447V26.0447ZM48.3151 24.3825C48.3166 24.3822 48.2959 24.3728 48.3385 24.3912C48.4352 24.4329 48.5978 24.5338 48.9143 24.7964C49.3943 25.1946 50.4893 26.2755 51.8924 26.7281L53.1204 22.9213C52.6634 22.7739 52.3685 22.4648 51.4684 21.718C50.7457 21.1184 49.3969 20.0704 47.4976 20.4669L48.3151 24.3825ZM51.8983 26.73C53.1034 27.1147 54.8788 27.2268 56.0319 27.338C56.6926 27.4017 57.219 27.4651 57.61 27.5485C57.8027 27.5896 57.9065 27.6243 57.9473 27.641C58.0058 27.6648 57.8691 27.6234 57.6989 27.4449L60.5938 24.6846C60.2186 24.291 59.7795 24.0684 59.4582 23.9373C59.1192 23.799 58.766 23.7051 58.4447 23.6366C57.8075 23.5006 57.0776 23.4203 56.4158 23.3564C54.924 23.2126 53.7893 23.1348 53.1145 22.9194L51.8983 26.73ZM57.7322 27.4789C57.6349 27.3817 57.5171 27.2196 57.447 26.9947C57.3783 26.7744 57.3845 26.5872 57.4014 26.4755C57.4254 26.3171 57.4697 26.3203 57.2985 26.5952C57.1397 26.8503 56.9396 27.1217 56.6363 27.5504C56.3576 27.9443 56.0256 28.4259 55.7227 28.9651L59.21 30.9243C59.4071 30.5735 59.6402 30.2302 59.9015 29.8609C60.1381 29.5265 60.453 29.0966 60.6942 28.7092C60.9231 28.3416 61.2523 27.7611 61.3563 27.0746C61.4845 26.2285 61.252 25.3419 60.5606 24.6505L57.7322 27.4789ZM55.7311 28.9503C55.1792 29.9134 54.458 31.2547 53.6603 32.5876C53.27 33.2396 52.8896 33.8408 52.5435 34.3296C52.1736 34.852 51.9283 35.1222 51.8188 35.2143L54.3939 38.2752C54.9144 37.8373 55.4017 37.2149 55.808 36.6411C56.2381 36.0337 56.6777 35.3348 57.0925 34.6418C57.9047 33.2848 58.7335 31.756 59.2017 30.9391L55.7311 28.9503ZM51.8452 35.1925C51.7328 35.2838 51.9013 35.1093 52.2767 35.1057C52.6018 35.1027 52.7851 35.2432 52.6117 35.1454C52.3383 34.9911 51.3093 34.2473 49.7834 34.2648L49.8294 38.2646C50.0434 38.2621 50.0245 38.2784 50.646 38.6291C50.9201 38.7837 51.5222 39.113 52.3142 39.1056C53.1564 39.0977 53.84 38.7256 54.3676 38.2969L51.8452 35.1925ZM49.8064 34.2647C49.1386 34.2647 48.3581 34.4124 47.7183 34.5444C46.9803 34.6966 46.3536 34.8452 45.6543 34.9767C44.9736 35.1047 44.4368 35.172 44.0489 35.1677C43.5779 35.1624 43.7514 35.0558 44.0239 35.3147L41.2689 38.2147C42.1414 39.0436 43.2923 39.1595 44.0045 39.1674C44.7997 39.1762 45.6517 39.0473 46.3935 38.9078C47.1166 38.7718 47.9462 38.5816 48.5263 38.4619C49.2046 38.322 49.6042 38.2647 49.8064 38.2647V34.2647ZM44.0239 35.3147C44.31 35.5866 44.1982 35.7622 44.1609 35.2083C44.1313 34.7682 44.1678 34.1706 44.2509 33.4446C44.3373 32.6898 44.4404 32.0449 44.5373 31.2903C44.6158 30.6788 44.713 29.8531 44.6309 29.1966L40.6618 29.6928C40.6605 29.6825 40.6687 29.764 40.6534 29.9915C40.6392 30.2012 40.6107 30.4623 40.5698 30.781C40.4961 31.3557 40.363 32.2371 40.2768 32.9898C40.1874 33.7713 40.1152 34.6625 40.1699 35.4768C40.2171 36.1773 40.3827 37.3729 41.2689 38.2147L44.0239 35.3147ZM44.6338 29.2208C44.5863 28.7991 44.4601 28.3762 44.2261 27.9859C43.9903 27.5923 43.684 27.2973 43.3629 27.0855C42.7661 26.6919 42.1456 26.6083 41.9036 26.5779C41.8362 26.5694 41.7699 26.5624 41.739 26.559C41.6948 26.5541 41.6993 26.5542 41.7169 26.5569C41.7216 26.5576 41.8371 26.5739 41.9897 26.6274C42.0911 26.6629 42.571 26.832 42.9282 27.3494C43.1301 27.6418 43.2526 27.99 43.2725 28.3577C43.2912 28.7048 43.2144 28.9867 43.141 29.173C43.0097 29.5064 42.8211 29.7044 42.7874 29.7403C42.6974 29.8362 42.6506 29.8583 42.7827 29.7622L40.43 26.5272C40.2872 26.6311 40.0616 26.7994 39.87 27.0038C39.7854 27.0939 39.5653 27.3365 39.4193 27.7072C39.2388 28.1655 39.1513 28.9192 39.6364 29.6219C40.0103 30.1635 40.5214 30.3513 40.6662 30.4021C40.8621 30.4708 41.033 30.4986 41.1028 30.5095C41.1856 30.5223 41.2649 30.531 41.3027 30.5351C41.354 30.5407 41.3772 30.5432 41.4042 30.5466C41.5396 30.5636 41.3754 30.5663 41.1605 30.4246C40.8318 30.2078 40.682 29.8734 40.6589 29.6687L44.6338 29.2208ZM42.7688 29.7722C42.7581 29.7798 42.7784 29.7648 42.8471 29.7263C42.9115 29.6902 42.9986 29.6445 43.1112 29.5892C43.3376 29.478 43.6272 29.3471 43.9721 29.1986C44.6639 28.9009 45.4984 28.5665 46.3589 28.2198C47.2026 27.8798 48.0746 27.5267 48.786 27.2105C49.1411 27.0527 49.4842 26.8919 49.778 26.7362C50.0177 26.6092 50.4103 26.3918 50.7219 26.0966L47.9709 23.1928C48.0924 23.0777 48.1356 23.0796 47.9051 23.2018C47.7286 23.2953 47.4804 23.4136 47.1618 23.5552C46.5257 23.8378 45.7201 24.1646 44.8639 24.5097C44.0244 24.8479 43.1363 25.2036 42.3906 25.5245C41.7174 25.8143 40.931 26.1693 40.4439 26.5173L42.7688 29.7722ZM50.6822 26.1332C51.0289 25.822 51.7879 24.9028 51.3035 23.6742C50.966 22.8181 50.215 22.4786 50.041 22.3993C49.5052 22.1548 48.845 22.0451 48.4137 21.9858C47.9134 21.9171 47.3975 21.8774 47.0023 21.8571C46.8032 21.8468 46.6217 21.8408 46.4757 21.839C46.4047 21.8382 46.328 21.8382 46.2555 21.8402C46.2207 21.8412 46.1693 21.8432 46.1113 21.8478C46.1067 21.8482 45.9156 21.8592 45.6969 21.9217L46.7958 25.7678C46.6634 25.8056 46.558 25.8202 46.5267 25.8245C46.4812 25.8307 46.4459 25.8338 46.4282 25.8352C46.4085 25.8368 46.3937 25.8376 46.3858 25.838C46.3774 25.8384 46.372 25.8385 46.3702 25.8386C46.3674 25.8387 46.3847 25.8382 46.4278 25.8388C46.5101 25.8397 46.6377 25.8436 46.7967 25.8518C47.1177 25.8683 47.5144 25.8999 47.8691 25.9486C48.2928 26.0068 48.43 26.0609 48.3805 26.0383C48.3502 26.0245 48.2441 25.9745 48.1129 25.8696C47.9887 25.7702 47.7394 25.5398 47.5822 25.1413C47.4028 24.6861 47.419 24.201 47.5788 23.7921C47.7167 23.439 47.9239 23.234 48.0106 23.1562L50.6822 26.1332ZM49.6705 25.3046C50.1913 25.2983 51.302 25.4919 52.5501 25.8639C53.8193 26.2422 54.7863 26.6736 55.1383 26.9336L57.5145 23.7159C56.5665 23.0158 55.0234 22.4272 53.6927 22.0306C52.3407 21.6276 50.7614 21.2911 49.6223 21.3049L49.6705 25.3046ZM55.1662 26.9539C55.2925 27.0438 55.3408 27.11 55.3638 27.1471C55.3896 27.1891 55.4232 27.2599 55.4527 27.3986C55.4846 27.5486 55.5055 27.7452 55.5178 28.0382C55.5239 28.1834 55.5273 28.3337 55.5314 28.5099C55.5353 28.6796 55.5397 28.8725 55.5482 29.0704L59.5445 28.8991C59.5243 28.4268 59.544 27.4065 59.365 26.5658C59.1454 25.5338 58.6164 24.5002 57.4865 23.6956L55.1662 26.9539ZM55.5472 29.041C55.582 30.2779 55.3351 31.886 54.8238 32.8396L58.3489 34.7299C59.3176 32.9235 59.5907 30.5315 59.5456 28.9284L55.5472 29.041ZM54.8078 32.87C54.0856 34.2743 53.4895 35.1045 52.5418 35.4383L53.8709 39.2111C56.4432 38.3049 57.6472 36.0951 58.3649 34.6994L54.8078 32.87ZM52.5485 35.436C51.9533 35.6433 50.8448 35.8018 49.5548 35.8302C48.2808 35.8583 47.1089 35.7538 46.4314 35.5844L45.4613 39.465C46.6238 39.7556 48.192 39.8612 49.6429 39.8292C51.0779 39.7976 52.6794 39.6261 53.8642 39.2134L52.5485 35.436ZM46.4265 35.5832C44.947 35.2173 44.148 34.3851 43.9837 33.8923L40.189 35.1572C40.9447 37.4243 43.2257 38.9121 45.4662 39.4662L46.4265 35.5832ZM43.9837 33.8923C43.9976 33.9338 43.9652 33.87 43.9973 33.6123C44.0288 33.359 44.1066 33.0353 44.2356 32.6092C44.4484 31.9062 44.9199 30.6335 45.0973 29.6045L41.1554 28.9249C41.0329 29.6359 40.7544 30.3032 40.4071 31.4503C40.1427 32.3238 39.733 33.7893 40.189 35.1572L43.9837 33.8923ZM45.0979 29.6008C45.2125 28.9286 45.1937 28.2616 45.1629 27.7354C45.1259 27.1018 45.085 26.7845 45.0704 26.3173C45.0421 25.4109 45.2204 25.5056 45.0758 25.6126L42.697 22.3968C41.0923 23.5838 41.0407 25.4285 41.0723 26.4422C41.0877 26.9349 41.1494 27.6201 41.1698 27.9691C41.1965 28.4254 41.1902 28.7209 41.1548 28.9287L45.0979 29.6008ZM45.072 25.6154C45.0506 25.6312 45.1077 25.5873 45.3038 25.5128C45.4868 25.4433 45.731 25.3694 46.0358 25.2966C46.6467 25.1508 47.3952 25.0342 48.174 24.9509C48.9475 24.8682 49.7121 24.8224 50.3417 24.8089C50.6564 24.8022 50.9262 24.8038 51.1388 24.8115C51.2448 24.8153 51.3297 24.8205 51.3943 24.8259C51.4624 24.8316 51.4898 24.8362 51.4866 24.8356L52.1662 20.8938C51.6686 20.808 50.947 20.7951 50.2561 20.8099C49.5132 20.8258 48.6353 20.8788 47.7487 20.9736C46.8676 21.0678 45.9385 21.2074 45.1069 21.406C44.3471 21.5874 43.405 21.8756 42.7007 22.394L45.072 25.6154ZM51.4537 24.8297C51.2778 24.7963 50.8378 24.6628 50.5014 24.1967C50.1693 23.7366 50.1731 23.2772 50.1959 23.0828C50.2176 22.8981 50.2688 22.8057 50.2533 22.8387C50.2449 22.8565 50.2171 22.9091 50.1586 22.997C50.0407 23.1743 49.8769 23.378 49.716 23.5621C49.6392 23.6499 49.5701 23.7253 49.5177 23.7811C49.4916 23.8089 49.4702 23.8313 49.4547 23.8473C49.4384 23.8643 49.4307 23.872 49.4322 23.8705L52.2606 26.6989C52.3532 26.6063 53.0032 25.9429 53.4891 25.2124C53.692 24.9074 54.0825 24.2833 54.1687 23.5492C54.218 23.1285 54.1889 22.471 53.7447 21.8556C53.2961 21.2341 52.6649 20.9881 52.199 20.8997L51.4537 24.8297ZM48.4143 27.4288C49.4979 27.777 51.2689 27.96 52.6802 28.1152C54.3015 28.2936 55.5909 28.4464 56.2462 28.6525L57.4466 24.8369C56.3218 24.4831 54.5412 24.2958 53.1176 24.1392C51.4838 23.9595 50.2349 23.8124 49.6384 23.6207L48.4143 27.4288ZM56.2267 28.6463C56.7071 28.8028 57.0513 28.91 57.3613 29.0221C57.6677 29.1329 57.8159 29.2059 57.8858 29.249C57.9385 29.2816 57.8595 29.2442 57.7814 29.1126C57.6995 28.9745 57.7058 28.8809 57.7066 28.935L61.7061 28.8744C61.697 28.2686 61.5633 27.6475 61.2213 27.0712C60.8832 26.5015 60.4242 26.1153 59.987 25.8454C59.2354 25.3814 58.2042 25.0837 57.466 24.8431L56.2267 28.6463ZM57.7066 28.9346C57.7065 28.9301 57.7065 28.9894 57.6812 29.1273C57.6572 29.2583 57.6169 29.4257 57.5566 29.6265C57.4355 30.0295 57.2523 30.5061 57.0233 30.998C56.538 32.0402 55.975 32.8787 55.588 33.2368L58.3047 36.1726C59.2577 35.2908 60.0847 33.8993 60.6495 32.6864C60.9454 32.0508 61.2022 31.3937 61.3874 30.7774C61.5617 30.1972 61.7157 29.5142 61.7061 28.8749L57.7066 28.9346ZM55.5999 33.2258C55.3364 33.4657 54.8138 33.7019 53.9251 33.891C53.5081 33.9798 53.0737 34.0463 52.6186 34.1115C52.1926 34.1724 51.6949 34.239 51.2697 34.3205L52.0231 38.2489C52.3279 38.1905 52.6902 38.142 53.1854 38.0711C53.6516 38.0044 54.1996 37.9222 54.7577 37.8034C55.819 37.5775 57.2163 37.1637 58.2928 36.1836L55.5999 33.2258ZM51.2697 34.3205C50.8394 34.403 50.493 34.4928 50.2483 34.5541C49.9855 34.6199 49.8762 34.6429 49.7864 34.6536C49.7083 34.6628 49.5137 34.6909 48.7991 34.4609L47.5736 38.2685C48.599 38.5986 49.4044 38.7266 50.2563 38.6259C50.6315 38.5815 50.9697 38.497 51.2207 38.4341C51.4898 38.3667 51.7233 38.3064 52.0231 38.2489L51.2697 34.3205ZM48.7928 34.4589C47.8745 34.1667 46.3888 33.7164 45.0315 33.1544C44.3527 32.8733 43.7752 32.5917 43.3544 32.3257C42.8628 32.015 42.8632 31.8975 42.9381 32.0577L39.3146 33.7518C39.7495 34.682 40.5924 35.3119 41.2171 35.7068C41.9125 36.1465 42.725 36.5286 43.5012 36.8501C45.0539 37.493 46.7383 38.0028 47.58 38.2706L48.7928 34.4589ZM42.9334 32.0476C43.0637 32.3224 42.9417 32.4156 43.0505 32.0536C43.1447 31.74 43.3449 31.3168 43.647 30.8126C44.2603 29.7889 45.0101 28.8743 45.4541 28.2744L42.2387 25.895C41.9426 26.2951 40.9624 27.5105 40.2157 28.7568C39.8378 29.3876 39.4505 30.1345 39.2198 30.9021C39.0036 31.6214 38.819 32.7071 39.3194 33.7619L42.9334 32.0476ZM45.4652 28.2592C45.4885 28.227 45.43 28.3187 45.2767 28.4307C45.1017 28.5586 44.793 28.7183 44.377 28.7337C43.9747 28.7486 43.678 28.6203 43.5385 28.5457C43.4244 28.4846 43.3524 28.4228 43.4234 28.4778C43.4472 28.4963 43.6071 28.6249 43.7908 28.7352C43.9936 28.8571 44.3241 29.0212 44.7595 29.077C45.2203 29.136 45.667 29.057 46.0646 28.878C46.4355 28.711 46.7238 28.4758 46.9406 28.2589L44.1122 25.4305C44.1237 25.419 44.542 25.0164 45.2677 25.1094C45.564 25.1473 45.7677 25.2566 45.8508 25.3065C45.9147 25.3449 45.9617 25.3844 45.8743 25.3166C45.8341 25.2854 45.6524 25.1401 45.4248 25.0184C45.1718 24.8831 44.7578 24.7168 44.2289 24.7364C43.6863 24.7565 43.2418 24.9634 42.9164 25.2013C42.6127 25.4233 42.3892 25.6874 42.2275 25.9103L45.4652 28.2592ZM46.9406 28.2589C47.3703 27.8292 47.7484 27.1961 48.008 26.7482C48.2602 26.3131 48.6654 25.5713 48.9079 25.147C49.2126 24.6136 49.4703 24.1989 49.6828 23.9251C49.789 23.7882 49.8376 23.7477 49.8268 23.7566C49.8178 23.764 49.7696 23.8034 49.6822 23.8487C49.5942 23.8943 49.4398 23.9596 49.2282 23.9875L48.7045 20.0219C48.0382 20.1099 47.5504 20.4477 47.2722 20.6786C46.972 20.9277 46.7213 21.2168 46.5224 21.4731C46.1249 21.9855 45.7501 22.6108 45.4349 23.1624C45.0573 23.8232 44.855 24.2114 44.5472 24.7425C44.4166 24.9678 44.3077 25.1459 44.2171 25.2808C44.1168 25.4303 44.0835 25.4592 44.1122 25.4305L46.9406 28.2589ZM49.2705 23.9815C48.7172 24.0666 48.34 23.8425 48.2404 23.7745C48.1414 23.707 48.1355 23.6754 48.2151 23.7758C48.3713 23.9726 48.5782 24.3159 48.8364 24.8004C49.0367 25.1762 49.3672 25.8345 49.5728 26.2065C49.6892 26.4171 49.8379 26.6734 50.005 26.9006C50.088 27.0133 50.2144 27.1728 50.3826 27.3282C50.5213 27.4563 50.8658 27.751 51.3966 27.8735L52.2961 23.9759C52.762 24.0834 53.0352 24.3331 53.097 24.3901C53.147 24.4364 53.1807 24.474 53.198 24.4942C53.216 24.5152 53.2257 24.5284 53.2269 24.53C53.2278 24.5312 53.2138 24.5119 53.1833 24.4621C53.1541 24.4143 53.1179 24.3517 53.0737 24.2717C52.8531 23.8724 52.691 23.5282 52.3663 22.919C52.0996 22.4185 51.749 21.7943 51.3489 21.2899C51.1504 21.0396 50.8667 20.724 50.4944 20.4701C50.1215 20.2157 49.4755 19.9029 48.6623 20.028L49.2705 23.9815ZM44.0012 51.2184C43.9696 54.1393 44.6131 60.6757 45.2332 66.9468C45.8686 73.3717 46.48 79.5227 46.4611 82.0047L50.461 82.0353C50.482 79.2773 49.8334 72.8183 49.2138 66.5532C48.579 60.1343 47.9724 53.9007 48.0009 51.2616L44.0012 51.2184ZM48.1254 49.8674C47.9272 52.8505 47.5408 60.1801 47.0875 67.331C46.6269 74.5976 46.0973 81.6723 45.6101 84.5004L49.552 85.1796C50.0847 82.0876 50.6251 74.7524 51.0795 67.584C51.5413 60.2999 51.9149 53.1695 52.1166 50.1326L48.1254 49.8674ZM45.83 4.7528C50.2536 4.0961 55.8691 4.94032 61.479 6.75264C67.0628 8.55654 72.4312 11.2517 76.3167 14.0896L78.6759 10.8594C74.4014 7.7373 68.6398 4.86243 62.7086 2.94633C56.8035 1.03865 50.519 0.0128703 45.2426 0.796165L45.83 4.7528ZM76.3193 14.0914C84.0637 19.7289 90.254 29.4456 92.5522 38.9639L96.4404 38.0251C93.9386 27.6634 87.2489 17.1 78.6734 10.8575L76.3193 14.0914ZM92.5522 38.9639C94.8711 48.568 94.3101 62.3426 90.1086 71.2188L93.724 72.9302C98.4025 63.0464 98.9215 48.3009 96.4404 38.0251L92.5522 38.9639ZM90.1086 71.2188C85.9036 80.1023 75.8957 89.0306 67.0437 92.967L68.669 96.6219C78.2569 92.3583 89.049 82.8067 93.724 72.9302L90.1086 71.2188ZM67.0437 92.967C58.2882 96.8605 46.4526 97.4141 37.1426 94.7705L36.05 98.6184C46.18 101.495 58.9844 100.929 68.669 96.6219L67.0437 92.967ZM37.1473 94.7719C27.8141 92.097 16.6123 84.774 11.1967 77.0102L7.91597 79.2987C13.9403 87.935 25.9786 95.732 36.0453 98.6171L37.1473 94.7719ZM11.1967 77.0102C5.7827 69.249 3.11478 57.3899 4.26229 47.7509L0.290333 47.2781C-0.962166 57.799 1.88992 70.66 7.91597 79.2987L11.1967 77.0102ZM4.26223 47.7514C5.41296 38.1044 10.9871 26.0271 18.1595 19.159L15.3931 16.2699C7.48552 23.8419 1.53965 36.8046 0.290388 47.2776L4.26223 47.7514ZM18.1595 19.159C21.5914 15.8728 27.5884 13.1832 33.6786 10.9913C36.6805 9.91092 39.6154 8.98102 42.1631 8.16713C44.6595 7.36958 46.8853 6.65324 48.3176 6.02696L46.715 2.36201C45.5173 2.88573 43.5281 3.53189 40.9458 4.35684C38.4147 5.16545 35.4071 6.11804 32.324 7.22765C26.2442 9.41579 19.5012 12.3362 15.3931 16.2699L18.1595 19.159ZM48.3117 6.02951C49.6279 5.459 50.396 5.10342 50.791 4.89993C50.8883 4.84981 50.9998 4.79014 51.1028 4.72674C51.1468 4.69963 51.2443 4.63854 51.3512 4.55233C51.3997 4.51321 51.5116 4.42037 51.6298 4.28133C51.6899 4.21066 51.7868 4.08726 51.8771 3.91619C51.9617 3.75605 52.0989 3.44485 52.1089 3.02709C52.1202 2.55026 51.9599 2.05218 51.6077 1.65337C51.2952 1.29964 50.9395 1.14524 50.7363 1.0778C50.3631 0.953939 50.0486 0.974732 49.9791 0.978842C49.7711 0.991143 49.6061 1.03421 49.5657 1.04455C49.4389 1.07703 49.3214 1.11815 49.2478 1.1449C48.9362 1.2582 48.4621 1.46523 48.0434 1.6902C47.8383 1.80042 47.5801 1.95004 47.3456 2.12774C47.2311 2.2144 47.064 2.35115 46.9036 2.53606C46.7817 2.67667 46.4428 3.09031 46.3695 3.72524L50.3431 4.18373C50.2774 4.75366 49.9795 5.09448 49.9255 5.15682C49.8746 5.21548 49.8321 5.2554 49.8084 5.27659C49.7835 5.29884 49.7663 5.31204 49.7608 5.31623C49.7556 5.32018 49.8068 5.28355 49.9367 5.21377C50.188 5.07874 50.4864 4.95077 50.6148 4.90407C50.6512 4.89082 50.623 4.90288 50.5578 4.91957C50.5482 4.92203 50.4071 4.96052 50.2153 4.97186C50.1539 4.9755 49.8456 4.99671 49.4765 4.87422C49.2753 4.80746 48.9211 4.65398 48.6097 4.30141C48.2585 3.90375 48.0987 3.40707 48.11 2.93188C48.1276 2.19121 48.5482 1.73051 48.5823 1.69045C48.696 1.55668 48.8012 1.47012 48.8406 1.43834C48.9293 1.3668 48.9991 1.32457 49.0052 1.32083C49.0323 1.30415 49.0268 1.30916 48.9591 1.34404C48.6942 1.48055 48.0347 1.78997 46.7209 2.35946L48.3117 6.02951ZM51.6532 4.01301C56.1232 3.84108 61.3493 5.38491 66.4735 7.95914C71.5709 10.5199 76.3898 14.0114 80.0052 17.5114L82.7874 14.6375C78.8828 10.8576 73.7318 7.12908 68.2691 4.38483C62.8333 1.65406 56.9094 -0.192113 51.4994 0.015962L51.6532 4.01301ZM80.0072 17.5134C87.2238 24.4805 93.3594 36.1767 94.6949 45.9064L98.6577 45.3625C97.1932 34.6923 90.6088 22.1885 82.7854 14.6356L80.0072 17.5134ZM94.6948 45.9059C96.0382 55.7126 93.5831 68.3098 88.1532 76.1342L91.4394 78.4148C97.5295 69.6391 100.114 55.9964 98.6578 45.363L94.6948 45.9059ZM88.1538 76.1334C82.7287 83.9425 71.2639 90.5523 61.4652 93.5838L62.6474 97.4051C72.8888 94.2367 85.3039 87.2464 91.4388 78.4156L88.1538 76.1334ZM61.4617 93.5849C51.7005 96.6243 38.9287 97.313 30.4262 94.0847L29.0064 97.8242C38.6239 101.476 52.3721 100.605 62.6509 97.4041L61.4617 93.5849ZM30.4262 94.0847C21.9005 90.8476 13.6106 82.7849 9.52827 74.0478L5.90435 75.7411C10.382 85.3241 19.4121 94.1814 29.0064 97.8242L30.4262 94.0847ZM9.52827 74.0478C5.45527 65.3309 4.22419 51.2253 6.04331 41.3363L2.10931 40.6127C0.168427 51.1636 1.41735 66.1381 5.90435 75.7411L9.52827 74.0478ZM6.04262 41.34C7.88851 31.4111 12.8807 20.9478 20.2711 15.1478L17.8015 12.0012C9.39192 18.6011 4.06411 30.0979 2.11 40.6089L6.04262 41.34ZM20.273 15.1463C23.8096 12.3637 30.1849 10.4298 36.6944 8.96841C39.8932 8.25028 43.0041 7.66953 45.6867 7.14805C48.2986 6.64031 50.6357 6.16633 52.0885 5.66515L50.7841 1.88382C49.657 2.27264 47.639 2.69366 44.9234 3.22155C42.2785 3.73569 39.0894 4.33118 35.8182 5.06556C29.3877 6.50919 22.143 8.58527 17.7996 12.0027L20.273 15.1463ZM52.0797 5.66816C52.7633 5.43591 53.32 5.21813 53.75 5.00817C53.9643 4.90352 54.1866 4.78184 54.3921 4.63883C54.5682 4.51624 54.8805 4.27802 55.1222 3.89768C55.4054 3.4519 55.6639 2.65178 55.2442 1.80414C54.9119 1.13309 54.3422 0.854124 54.1293 0.76113C53.6578 0.555182 53.1514 0.513288 52.8773 0.497708C52.2171 0.460177 51.4175 0.520277 50.769 0.623936C50.4451 0.675712 50.0833 0.750068 49.757 0.85805C49.6002 0.90997 49.3757 0.994039 49.1477 1.12814C49.0062 1.21139 48.4339 1.55094 48.1728 2.28181L51.9398 3.62716C51.8103 3.98985 51.6044 4.22327 51.48 4.34302C51.3512 4.46715 51.2354 4.54085 51.1756 4.576C51.0602 4.64388 50.9879 4.66408 51.0139 4.65545C51.0535 4.64234 51.1809 4.60888 51.4005 4.57378C51.8389 4.50369 52.343 4.47379 52.6503 4.49126C52.6831 4.49312 52.7086 4.49528 52.7271 4.49724C52.7461 4.49923 52.754 4.50062 52.7523 4.50033C52.7514 4.50019 52.7328 4.49703 52.7005 4.48831C52.6702 4.48011 52.6087 4.46188 52.5283 4.42675C52.4386 4.38758 51.9538 4.17341 51.6596 3.57911C51.4946 3.246 51.4319 2.87176 51.4776 2.50582C51.5205 2.16304 51.6475 1.90772 51.7461 1.75254C51.8442 1.59806 51.9424 1.49776 51.9961 1.44744C52.0529 1.39419 52.0948 1.36427 52.1071 1.35571C52.1283 1.341 52.102 1.36147 51.9949 1.41376C51.782 1.51772 51.4043 1.67306 50.7929 1.88081L52.0797 5.66816Z" fill="#1E1E1E"/>
</svg>
