<svg width="75" height="75" viewBox="0 0 75 75" fill="none" xmlns="http://www.w3.org/2000/svg">
<path d="M34.375 15.625C33.25 15.25 18.75 28.125 18.75 28.125H9H6.25V46.875H18.75L34.375 59.375C34.375 59.375 35.5 16 34.375 15.625Z" fill="white"/>
<path d="M6.25 35L7 29L9 28.125M9 28.125H18.75C18.75 28.125 33.25 15.25 34.375 15.625C35.5 16 34.375 59.375 34.375 59.375L18.75 46.875H6.25V28.125H9ZM18 28.125L33.5 18" stroke="black" stroke-width="2" stroke-linecap="round" stroke-linejoin="round"/>
<path d="M28 54.5L33 56L34 52.5" stroke="black"/>
<path d="M45.39 28.4066C48.5823 31.2151 58.6651 43.2619 62.1791 47.0173M43.6921 26.2073C47.5861 29.1268 62.7688 45.9072 66.4834 49.3972M47.5379 46.4353C50.4323 42.4259 61.0514 28.7108 63.8218 25.6673M44.1508 50.6064C46.7815 46.906 58.3475 33.0284 61.3998 28.6542" stroke="#1E1E1E" stroke-width="3" stroke-linecap="round"/>
</svg>
