<svg width="53" height="75" viewBox="0 0 53 75" fill="none" xmlns="http://www.w3.org/2000/svg">
<path d="M49.5978 35.3456C50.7536 36.1409 50.7553 37.8442 49.6011 38.6419L9.1258 66.6149C7.7951 67.5345 5.97686 66.5852 5.97523 64.9699L5.91893 9.1052C5.91731 7.4899 7.73363 6.53691 9.06618 7.4539L49.5978 35.3456Z" fill="white"/>
<path d="M4.73395 4.74196C4.73395 15.9546 4.67992 61.1398 4.66192 72.2408ZM3.77953 3.71925C3.61746 14.6158 3.99562 59.1873 4.04965 70.6045Z" fill="white"/>
<path d="M4.32752 4.64115C11.5667 9.77329 42 29.6139 49.7614 35.3782ZM7.80304 2.83746C14.7541 8.15555 41.4237 31.5849 48.5549 37.0703Z" fill="white"/>
<path d="M4.44656 72.8375C11.5777 67.0917 40.3723 44.0714 47.6114 38.6232ZM2.4657 71.7032C9.1106 66.1062 38.2293 45.7636 45.5405 40.9847Z" fill="white"/>
<path d="M47.6651 6.74162C47.485 16.9129 47.467 57.0403 47.503 67.2117ZM49.3398 5.66312C49.4298 15.5741 49.79 55.4412 49.4298 65.5381Z" fill="white"/>
<path d="M4.73395 4.74196C4.73395 15.9546 4.67992 61.1398 4.66192 72.2408M3.77953 3.71925C3.61746 14.6158 3.99562 59.1873 4.04965 70.6045M4.32752 4.64115C11.5667 9.77329 42 29.6139 49.7614 35.3782M7.80304 2.83746C14.7541 8.15555 41.4237 31.5849 48.5549 37.0703M4.44656 72.8375C11.5777 67.0917 40.3723 44.0714 47.6114 38.6232M2.4657 71.7032C9.1106 66.1062 38.2293 45.7636 45.5405 40.9847M47.6651 6.74162C47.485 16.9129 47.467 57.0403 47.503 67.2117M49.3398 5.66312C49.4298 15.5741 49.79 55.4412 49.4298 65.5381M5.91893 9.1052L5.97523 64.9699C5.97686 66.5852 7.7951 67.5345 9.1258 66.6149L49.6011 38.6419C50.7553 37.8442 50.7536 36.1409 49.5978 35.3456L9.06618 7.4539C7.73363 6.53691 5.91731 7.4899 5.91893 9.1052Z" stroke="#1E1E1E" stroke-width="4" stroke-linecap="round"/>
</svg>
