<svg width="100" height="102" viewBox="0 0 100 102" fill="none" xmlns="http://www.w3.org/2000/svg">
<path d="M97.2537 51.0637C97.2537 77.2972 75.9872 98.5637 49.7537 98.5637C23.5202 98.5637 2.25368 77.2972 2.25368 51.0637C2.25368 24.8301 23.5202 3.56367 49.7537 3.56367C75.9872 3.56367 97.2537 24.8301 97.2537 51.0637Z" fill="white"/>
<path d="M95.221 51.2831C95.221 78.1887 74.6333 100 49.2371 100C23.8409 100 3.25324 78.1887 3.25324 51.2831C3.25324 24.3775 23.8409 2.5662 49.2371 2.5662C74.6333 2.5662 95.221 24.3775 95.221 51.2831Z" fill="white"/>
<path d="M95.221 51.2831C95.221 78.1887 74.6333 100 49.2371 100C23.8409 100 3.25324 78.1887 3.25324 51.2831C3.25324 24.3775 23.8409 2.5662 49.2371 2.5662C74.6333 2.5662 95.221 24.3775 95.221 51.2831Z" fill="white"/>
<path d="M55.5749 2.86754C65.0716 3.57067 76.7875 11.3855 83.6851 18.8989C90.5827 26.3923 96.6005 37.6825 96.9804 47.9081C97.3603 58.1135 92.1621 71.7944 86.0042 80.1717C79.8264 88.549 69.71 96.0223 59.9734 98.1317C50.2368 100.241 36.7815 97.7902 27.5647 92.8482C18.3479 87.9062 8.55138 77.8012 4.73272 68.4596C0.914054 59.118 1.29392 46.4616 4.65274 36.7986C8.03156 27.1557 16.1487 16.0261 24.9456 10.5417C33.7426 5.07738 51.8962 4.91666 57.3943 3.91219C62.9123 2.9278 58.214 3.75147 58.014 4.53496M50.4767 2.16441C59.9934 1.92333 71.1495 7.66891 78.7668 14.4591C86.3641 21.2293 94.3613 33.062 96.1807 42.8857C98.0001 52.7295 95.0011 64.522 89.703 73.4418C84.4048 82.3615 73.6686 92.5267 64.3918 96.404C55.1351 100.281 43.2992 100.522 34.1424 96.6852C25.0056 92.8482 14.6093 82.6628 9.51104 73.4217C4.41283 64.2006 1.83373 51.263 3.59312 41.2987C5.33251 31.3343 12.3301 20.0641 20.0074 13.6556C27.6847 7.24704 44.7787 4.53496 49.637 2.82736C54.4753 1.09967 48.9372 2.48584 49.1372 3.3095M97.2537 51.0637C97.2537 77.2972 75.9872 98.5637 49.7537 98.5637C23.5202 98.5637 2.25368 77.2972 2.25368 51.0637C2.25368 24.8301 23.5202 3.56367 49.7537 3.56367C75.9872 3.56367 97.2537 24.8301 97.2537 51.0637ZM95.221 51.2831C95.221 78.1887 74.6333 100 49.2371 100C23.8409 100 3.25324 78.1887 3.25324 51.2831C3.25324 24.3775 23.8409 2.5662 49.2371 2.5662C74.6333 2.5662 95.221 24.3775 95.221 51.2831ZM37.6555 31.4729C37.4356 38.3435 37.7355 66.2076 37.8755 73.038L37.6555 31.4729ZM39.235 30.7497C39.3349 37.2185 40.2746 64.2187 40.0347 71.3706L39.235 30.7497ZM57.8267 31.6476C57.6467 38.6789 57.5867 67.3666 57.7867 74.4984L57.8267 31.6476ZM59.3461 33.6565C59.4661 40.3865 59.8859 66.4023 59.746 72.9113L59.3461 33.6565Z" stroke="#1E1E1E" stroke-width="4" stroke-linecap="round"/>
</svg>
