<svg width="141" height="122" viewBox="0 0 141 122" fill="none" xmlns="http://www.w3.org/2000/svg">
<path d="M28.0794 20C53.8194 16.32 88.4594 20.82 113.659 20C120.219 16.24 123.179 24.28 120.599 26.94C119.679 30.56 118.659 36.08 120.599 40.84C117.759 43.32 121.259 44.56 113.659 47.78C87.4194 45.58 72.1394 48.84 28.0794 47.78C19.2594 47.06 19.9794 46.38 21.1394 40.84C22.7994 38.98 22.5194 33.18 21.1394 26.94C24.9994 17.76 23.4594 16.26 28.0794 20Z" fill="white"/>
<path d="M28.0794 20C46.7594 19.28 67.4194 19.94 113.659 20M28.0794 20C60.9394 19.02 92.7394 19.8 113.659 20M28.0794 20C23.2594 20.4 20.4994 22.26 21.1394 26.94M28.0794 20C23.5994 19.52 19.8994 20.58 21.1394 26.94M113.659 20C117.939 20.4 120.359 21.46 120.599 26.94M113.659 20C117.279 21.86 120.219 20.84 120.599 26.94M120.599 26.94C120.019 32.64 120.879 36.7 120.599 40.84M120.599 26.94C120.459 30.38 120.579 33.88 120.599 40.84M120.599 40.84C119.759 46.18 119.479 47.34 113.659 47.78M120.599 40.84C119.719 45.8 120.539 48.58 113.659 47.78M113.659 47.78C89.6594 47.28 69.3994 50 28.0794 47.78M113.659 47.78C82.5594 49.06 49.2394 49.18 28.0794 47.78M28.0794 47.78C25.3994 46.04 21.6794 45.9 21.1394 40.84M28.0794 47.78C23.1194 45.52 21.0794 45.08 21.1394 40.84M21.1394 40.84C20.9794 36.62 21.5394 31.6 21.1394 26.94M21.1394 40.84C21.3794 37.92 20.7794 34.58 21.1394 26.94" stroke="#1E1E1E" stroke-width="6" stroke-linecap="round"/>
<path d="M21.1792 74.2472C37.3992 74.1272 102.159 73.1472 118.259 73.1872M22.8192 73.1672C39.0392 73.2272 102.079 74.2872 117.839 74.1672" stroke="#1E1E1E" stroke-width="6" stroke-linecap="round"/>
<path d="M20.0044 100.658C36.4444 100.698 103.044 100.778 119.544 100.898M21.5644 99.5382C37.8644 99.7182 102.664 101.358 118.764 101.818" stroke="#1E1E1E" stroke-width="6" stroke-linecap="round"/>
</svg>
