<svg width="99" height="102" viewBox="0 0 99 102" fill="none" xmlns="http://www.w3.org/2000/svg">
<path d="M96.2055 52.7078C96.2055 78.7766 75.3138 99.9095 49.5426 99.9095C23.7714 99.9095 2.87969 78.7766 2.87969 52.7078C2.87969 26.6389 23.7714 5.50598 49.5426 5.50598C75.3138 5.50598 96.2055 26.6389 96.2055 52.7078Z" fill="white"/>
<path d="M46.9613 3.59784C56.3335 2.31234 68.3269 6.40986 76.21 12.3954C84.0732 18.381 91.4797 29.5287 94.2397 39.5114C96.9998 49.494 96.9203 62.9516 92.7505 72.3317C88.6004 81.7118 78.5133 91.6543 69.2205 95.7719C59.9276 99.8895 46.8223 99.769 37.0131 96.9971C27.1841 94.2253 16.1439 87.3961 10.3259 79.1207C4.52779 70.8252 1.15217 57.6087 2.18472 47.2645C3.21726 36.9203 8.9558 24.4068 16.5013 17.0554C24.0269 9.68385 41.6595 5.32522 47.3782 3.09569C53.1168 0.866158 50.7539 2.69397 50.8531 3.63801M39.0385 3.05552C48.2916 0.263582 63.2238 3.35681 72.2386 8.27784C81.2734 13.1788 89.3749 22.7798 93.1873 32.5617C97.0196 42.3435 98.4692 57.0865 95.1531 66.9286C91.8172 76.7706 81.8492 86.1306 73.2315 91.6141C64.6137 97.0975 53.3551 100.914 43.4466 99.8091C33.5581 98.7044 20.691 92.8192 13.8405 84.9858C6.99 77.1523 2.64142 63.5541 2.38328 52.8685C2.145 42.1627 6.17588 29.0265 12.3116 20.8315C18.4671 12.6164 34.4318 6.14874 39.2966 3.59784C44.1416 1.04693 41.322 4.56196 41.4411 5.52608" fill="white"/>
<path d="M37.158 25.4329C37.1779 34.2305 35.6092 69.5816 35.5695 78.1985ZM36.3836 24.6696C36.8403 33.1459 37.6942 67.7137 37.7537 76.6117Z" fill="white"/>
<path d="M36.1776 25.0093C41.9558 29.2072 66.6574 45.8986 72.4158 49.976ZM37.9051 24.3866C43.5046 28.7252 66.161 46.8627 71.9789 51.1812Z" fill="white"/>
<path d="M36.2019 76.5778C42.1589 72.179 64.5372 55.3471 70.5538 51.2696ZM35.3084 75.4128C41.6426 71.0743 66.4236 55.9095 72.5593 52.2338Z" fill="white"/>
<path d="M46.9613 3.59784C56.3335 2.31234 68.3269 6.40986 76.21 12.3954C84.0732 18.381 91.4797 29.5287 94.2397 39.5114C96.9998 49.494 96.9203 62.9516 92.7505 72.3317C88.6004 81.7118 78.5133 91.6543 69.2205 95.7719C59.9276 99.8895 46.8223 99.769 37.0131 96.9971C27.1841 94.2253 16.1439 87.3961 10.3259 79.1207C4.52779 70.8252 1.15217 57.6087 2.18472 47.2645C3.21726 36.9203 8.9558 24.4068 16.5013 17.0554C24.0269 9.68385 41.6595 5.32522 47.3782 3.09569C53.1168 0.866158 50.7539 2.69397 50.8531 3.63801M39.0385 3.05552C48.2916 0.263582 63.2238 3.35681 72.2386 8.27784C81.2734 13.1788 89.3749 22.7798 93.1873 32.5617C97.0196 42.3435 98.4692 57.0865 95.1531 66.9286C91.8172 76.7706 81.8492 86.1306 73.2315 91.6141C64.6137 97.0975 53.3551 100.914 43.4466 99.8091C33.5581 98.7044 20.691 92.8192 13.8405 84.9858C6.99 77.1523 2.64142 63.5541 2.38328 52.8685C2.145 42.1627 6.17588 29.0265 12.3116 20.8315C18.4671 12.6164 34.4318 6.14874 39.2966 3.59784C44.1416 1.04693 41.322 4.56196 41.4411 5.52608M37.158 25.4329C37.1779 34.2305 35.6092 69.5816 35.5695 78.1985M36.3836 24.6696C36.8403 33.1459 37.6942 67.7137 37.7537 76.6117M36.1776 25.0093C41.9558 29.2072 66.6574 45.8986 72.4158 49.976M37.9051 24.3866C43.5046 28.7252 66.161 46.8627 71.9789 51.1812M36.2019 76.5778C42.1589 72.179 64.5372 55.3471 70.5538 51.2696M35.3084 75.4128C41.6426 71.0743 66.4236 55.9095 72.5593 52.2338M96.2055 52.7078C96.2055 78.7766 75.3138 99.9095 49.5426 99.9095C23.7714 99.9095 2.87969 78.7766 2.87969 52.7078C2.87969 26.6389 23.7714 5.50598 49.5426 5.50598C75.3138 5.50598 96.2055 26.6389 96.2055 52.7078Z" stroke="#1E1E1E" stroke-width="4" stroke-linecap="round"/>
</svg>
