<svg width="52" height="74" viewBox="0 0 52 74" fill="none" xmlns="http://www.w3.org/2000/svg">
<path d="M2.86789 34.5081C1.71211 35.3035 1.7104 37.0068 2.86457 37.8044L43.3399 65.7774C44.6706 66.6971 46.4888 65.7477 46.4905 64.1324L46.5468 8.26774C46.5484 6.65244 44.7321 5.69944 43.3995 6.61643L2.86789 34.5081Z" fill="white"/>
<path d="M47.7317 3.90449C47.7317 15.1171 47.7858 60.3023 47.8038 71.4033ZM48.6862 2.88178C48.8482 13.7783 48.4701 58.3498 48.4161 69.767Z" fill="white"/>
<path d="M48.1382 3.80369C40.899 8.93583 10.4657 28.7764 2.70432 34.5408ZM44.6627 2C37.7116 7.31809 11.042 30.7474 3.91084 36.2329Z" fill="white"/>
<path d="M48.0191 72C40.888 66.2542 12.0934 43.234 4.85427 37.7857ZM50 70.8657C43.3551 65.2687 14.2364 44.9261 6.92518 40.1473Z" fill="white"/>
<path d="M4.80065 5.90415C4.98072 16.0755 4.99873 56.2029 4.96272 66.3742ZM3.12592 4.82566C3.03588 14.7366 2.67572 54.6037 3.03588 64.7007Z" fill="white"/>
<path d="M47.7317 3.90449C47.7317 15.1171 47.7858 60.3023 47.8038 71.4033M48.6862 2.88178C48.8482 13.7783 48.4701 58.3498 48.4161 69.767M48.1382 3.80369C40.899 8.93583 10.4657 28.7764 2.70432 34.5408M44.6627 2C37.7116 7.31809 11.042 30.7474 3.91084 36.2329M48.0191 72C40.888 66.2542 12.0934 43.234 4.85427 37.7857M50 70.8657C43.3551 65.2687 14.2364 44.9261 6.92518 40.1473M4.80065 5.90415C4.98072 16.0755 4.99873 56.2029 4.96272 66.3742M3.12592 4.82566C3.03588 14.7366 2.67572 54.6037 3.03588 64.7007M46.5468 8.26774L46.4905 64.1324C46.4888 65.7477 44.6706 66.6971 43.3399 65.7774L2.86457 37.8044C1.7104 37.0068 1.71211 35.3035 2.86789 34.5081L43.3995 6.61643C44.7321 5.69944 46.5484 6.65244 46.5468 8.26774Z" stroke="#1E1E1E" stroke-width="4" stroke-linecap="round"/>
</svg>
