<svg width="36" height="31" viewBox="0 0 36 31" fill="none" xmlns="http://www.w3.org/2000/svg">
<path d="M10.3902 2.47368C13.6302 2.47368 26.0702 -0.946321 29.6102 2.63368C33.1702 6.21368 31.3902 20.5337 31.7102 23.9937M11.9902 1.99368C15.1702 2.57368 25.5302 -0.306321 28.7902 3.53368C32.0302 7.39368 30.9702 21.6337 31.5502 25.0537M31.5502 25.0537C28.8702 20.0737 28.8902 17.5737 27.5902 15.4737C28.4702 17.8937 29.8502 20.9137 31.5502 25.0537ZM31.5502 25.0537C32.9102 19.8737 34.4702 17.2937 34.6502 15.1737C33.6102 17.6337 33.0502 20.7537 31.5502 25.0537ZM24.0226 29.2343C20.9514 28.823 8.36268 29.0512 5.25765 24.9182C2.15263 20.7851 5.49548 7.75906 5.37295 4.41533M25.1464 27.3598C22.2192 26.7718 8.80308 29.9017 5.60371 26.3866C2.40479 22.8515 5.66442 9.96357 5.93246 6.16877M5.93246 6.16877C5.94005 8.42955 7.61798 11.9894 8.01771 16.3198C7.16744 12.4391 6.2358 8.61646 5.93246 6.16877ZM5.93246 6.16877C4.32559 8.17206 3.31213 11.3294 1 15.2769C2.76161 11.7768 4.40186 8.33387 5.93246 6.16877Z" stroke="#1E1E1E" stroke-width="2" stroke-linecap="round"/>
</svg>
