<svg width="39" height="38" viewBox="0 0 39 38" fill="none" xmlns="http://www.w3.org/2000/svg">
<path d="M28.5946 12.9037C28.538 16.1432 31.7404 28.641 28.0992 32.118C24.4576 35.615 10.1708 33.5853 6.70576 33.8449M29.0466 14.5119C28.4112 17.6813 31.1099 28.09 27.2136 31.2824C23.2976 34.4546 9.07831 33.1462 5.64871 33.6664M5.64871 33.6664C10.6747 31.0738 13.174 31.1374 15.2964 29.8742C12.8614 30.7119 9.81775 32.039 5.64871 33.6664ZM5.64871 33.6664C10.8042 35.1166 13.3566 36.7214 15.4731 36.9384C13.0316 35.8556 9.92188 35.2413 5.64871 33.6664ZM1.6001 26.0671C2.06494 23.0034 2.05643 10.4127 6.24308 7.38025C10.4297 4.34783 23.3954 7.91751 26.7408 7.85336M3.45465 27.2234C4.09366 24.3069 1.19844 10.8382 4.76885 7.70063C8.35924 4.5639 21.1883 8.04795 24.9778 8.38218M24.9778 8.38218C22.7173 8.35031 19.1287 9.96586 14.7919 10.29C18.6869 9.50754 22.5252 8.64275 24.9778 8.38218ZM24.9778 8.38218C23.0029 6.74059 19.8637 5.67218 15.9572 3.29151C19.426 5.11394 22.8398 6.81402 24.9778 8.38218ZM33 5.09441C33.5837 4.43335 36.0648 0.0758528 36.6836 1.17762C37.2965 2.27388 36.6953 9.92566 36.6894 11.6995M33.5312 5.61775C34.0683 5.01177 35.8138 0.395366 36.4501 1.45306C37.0806 2.51627 37.3082 10.2066 37.3257 11.9805" stroke="white" stroke-width="2" stroke-linecap="round"/>
</svg>
