<svg width="258" height="236" viewBox="0 0 258 236" fill="none" xmlns="http://www.w3.org/2000/svg">
<path d="M19.5 74.5L7.5 101.5L3 130L7.5 162.5L24 188L47 214L80 225L115.5 232.5L154 230L204 214L227 194.5L243.5 168L251 139.5V107.5L243.5 86.5L233 69L238.5 58V21L227 5H213L189 14L173 25.5L145.5 21H119L86 25.5L66 14L47 5H31L19.5 21V74.5Z" fill="white"/>
<path d="M205.893 2.94199C190.826 7.47533 182.959 10.942 175.893 15.742L169.493 20.142L160.026 18.2753C147.759 16.0087 115.226 15.8753 99.8928 18.142L87.8928 20.0087L80.0261 15.2087C66.6928 7.20866 51.8928 2.00866 40.4261 1.34199L30.2928 0.80866L24.9594 6.00866C15.4928 14.942 11.0928 35.6087 13.7594 59.342C15.3594 73.4753 15.2261 74.6753 12.9594 78.142C9.75945 82.8087 3.89278 96.0087 1.75945 103.742C0.69278 107.475 0.0261132 117.742 0.0261132 130.409C-0.10722 149.475 0.159446 151.875 3.49278 161.342C11.0928 182.809 24.6928 201.342 41.4928 213.075C58.5595 224.942 67.0928 228.675 84.8261 231.609C122.293 238.009 166.559 236.142 190.559 226.942C200.559 223.075 216.959 212.542 225.626 204.542C240.693 190.409 248.293 177.342 253.493 156.142C260.026 129.742 257.759 106.275 246.826 83.742L241.226 72.2753L242.826 62.4087C247.093 35.0753 241.359 8.40866 229.893 2.27533C223.893 -0.924673 218.159 -0.79134 205.893 2.94199ZM224.159 11.0753C230.826 15.742 236.026 41.8753 232.693 54.142L231.093 60.0087L222.826 52.142C212.693 42.542 205.359 37.342 192.559 31.2087C187.226 28.542 182.426 26.142 182.159 25.742C180.293 23.8753 193.759 16.4087 206.559 12.2753C217.626 8.54199 220.426 8.40866 224.159 11.0753ZM52.9594 13.4753C62.1595 16.8087 73.8928 23.2087 73.8928 24.942C73.8928 25.4753 70.6928 27.2087 66.6928 28.942C56.5595 33.0753 41.8928 43.0753 32.6928 52.142C25.3594 59.342 24.8261 59.6087 24.0261 56.8087C23.6261 55.0753 23.2261 48.542 23.2261 42.2753C23.2261 29.6087 26.8261 15.342 30.9594 12.2753C34.4261 9.60866 43.4928 10.0087 52.9594 13.4753ZM149.493 26.4087C165.359 28.4087 179.359 33.8753 197.893 44.942C217.759 56.8087 228.159 68.142 238.026 88.542C248.159 109.475 249.626 132.409 242.559 158.275C238.826 172.009 236.959 175.875 226.693 189.475C215.626 204.409 197.093 215.342 171.093 222.275C156.559 226.142 154.293 226.409 131.493 226.409C82.2928 226.409 61.0928 219.742 36.8261 196.542C28.6928 188.809 18.6928 171.742 13.6261 156.942C9.75945 145.342 9.35945 143.075 9.35945 127.075C9.35945 105.742 11.2261 99.2087 22.1594 80.142C35.2261 57.4753 56.1595 40.942 83.3595 31.742C99.0928 26.4087 130.159 23.8753 149.493 26.4087Z" fill="black"/>
<path d="M64.4261 84.942C57.4928 92.0087 60.4261 105.209 69.8928 109.075C78.1594 112.542 87.4928 104.809 87.7594 94.4087C87.8928 86.6753 82.1594 81.0753 74.1594 81.0753C69.4928 81.0753 67.6261 81.8753 64.4261 84.942Z" fill="black"/>
<path d="M167.093 85.2087C162.293 90.4087 161.093 94.6753 163.226 99.8753C167.093 109.209 178.959 112.409 185.226 105.609C189.493 100.942 191.626 94.2753 190.026 90.2753C187.626 83.8753 183.493 81.0753 177.093 81.0753C171.893 81.0753 170.293 81.742 167.093 85.2087Z" fill="black"/>
<path d="M97.8928 97.8753C96.2928 101.875 98.8261 107.742 103.493 110.942C107.359 113.742 114.559 113.609 119.226 110.809C122.693 108.809 123.359 108.809 128.426 110.809C137.626 114.542 146.293 111.209 149.893 102.275C151.226 99.2087 151.226 98.0087 149.893 96.4087C147.093 93.0753 143.359 94.142 140.426 99.0753C136.693 105.342 132.159 105.209 128.693 98.6753C127.626 96.6753 125.893 95.742 123.226 95.742C120.959 95.742 119.226 96.2753 119.226 97.0753C119.226 99.0753 114.159 103.742 112.026 103.742C110.959 103.742 108.959 101.609 107.359 99.0753C104.026 93.342 99.7594 92.8087 97.8928 97.8753Z" fill="black"/>
<path d="M19.5 74.5L7.5 101.5L3 130L7.5 162.5L24 188L47 214L80 225L115.5 232.5L154 230L204 214L227 194.5L243.5 168L251 139.5V107.5L243.5 86.5L233 69L238.5 58V21L227 5H213L189 14L173 25.5L145.5 21H119L86 25.5L66 14L47 5H31L19.5 21V74.5Z" fill="white"/>
<path d="M205.893 2.94199C190.826 7.47533 182.959 10.942 175.893 15.742L169.493 20.142L160.026 18.2753C147.759 16.0087 115.226 15.8753 99.8928 18.142L87.8928 20.0087L80.0261 15.2087C66.6928 7.20866 51.8928 2.00866 40.4261 1.34199L30.2928 0.80866L24.9594 6.00866C15.4928 14.942 11.0928 35.6087 13.7594 59.342C15.3594 73.4753 15.2261 74.6753 12.9594 78.142C9.75945 82.8087 3.89278 96.0087 1.75945 103.742C0.69278 107.475 0.0261132 117.742 0.0261132 130.409C-0.10722 149.475 0.159446 151.875 3.49278 161.342C11.0928 182.809 24.6928 201.342 41.4928 213.075C58.5595 224.942 67.0928 228.675 84.8261 231.609C122.293 238.009 166.559 236.142 190.559 226.942C200.559 223.075 216.959 212.542 225.626 204.542C240.693 190.409 248.293 177.342 253.493 156.142C260.026 129.742 257.759 106.275 246.826 83.742L241.226 72.2753L242.826 62.4087C247.093 35.0753 241.359 8.40866 229.893 2.27533C223.893 -0.924673 218.159 -0.79134 205.893 2.94199ZM224.159 11.0753C230.826 15.742 236.026 41.8753 232.693 54.142L231.093 60.0087L222.826 52.142C212.693 42.542 205.359 37.342 192.559 31.2087C187.226 28.542 182.426 26.142 182.159 25.742C180.293 23.8753 193.759 16.4087 206.559 12.2753C217.626 8.54199 220.426 8.40866 224.159 11.0753ZM52.9594 13.4753C62.1595 16.8087 73.8928 23.2087 73.8928 24.942C73.8928 25.4753 70.6928 27.2087 66.6928 28.942C56.5595 33.0753 41.8928 43.0753 32.6928 52.142C25.3594 59.342 24.8261 59.6087 24.0261 56.8087C23.6261 55.0753 23.2261 48.542 23.2261 42.2753C23.2261 29.6087 26.8261 15.342 30.9594 12.2753C34.4261 9.60866 43.4928 10.0087 52.9594 13.4753ZM149.493 26.4087C165.359 28.4087 179.359 33.8753 197.893 44.942C217.759 56.8087 228.159 68.142 238.026 88.542C248.159 109.475 249.626 132.409 242.559 158.275C238.826 172.009 236.959 175.875 226.693 189.475C215.626 204.409 197.093 215.342 171.093 222.275C156.559 226.142 154.293 226.409 131.493 226.409C82.2928 226.409 61.0928 219.742 36.8261 196.542C28.6928 188.809 18.6928 171.742 13.6261 156.942C9.75945 145.342 9.35945 143.075 9.35945 127.075C9.35945 105.742 11.2261 99.2087 22.1594 80.142C35.2261 57.4753 56.1595 40.942 83.3595 31.742C99.0928 26.4087 130.159 23.8753 149.493 26.4087Z" fill="black"/>
<path d="M64.4261 84.942C57.4928 92.0087 60.4261 105.209 69.8928 109.075C78.1594 112.542 87.4928 104.809 87.7594 94.4087C87.8928 86.6753 82.1594 81.0753 74.1594 81.0753C69.4928 81.0753 67.6261 81.8753 64.4261 84.942Z" fill="black"/>
<path d="M167.093 85.2087C162.293 90.4087 161.093 94.6753 163.226 99.8753C167.093 109.209 178.959 112.409 185.226 105.609C189.493 100.942 191.626 94.2753 190.026 90.2753C187.626 83.8753 183.493 81.0753 177.093 81.0753C171.893 81.0753 170.293 81.742 167.093 85.2087Z" fill="black"/>
<path d="M97.8928 97.8753C96.2928 101.875 98.8261 107.742 103.493 110.942C107.359 113.742 114.559 113.609 119.226 110.809C122.693 108.809 123.359 108.809 128.426 110.809C137.626 114.542 146.293 111.209 149.893 102.275C151.226 99.2087 151.226 98.0087 149.893 96.4087C147.093 93.0753 143.359 94.142 140.426 99.0753C136.693 105.342 132.159 105.209 128.693 98.6753C127.626 96.6753 125.893 95.742 123.226 95.742C120.959 95.742 119.226 96.2753 119.226 97.0753C119.226 99.0753 114.159 103.742 112.026 103.742C110.959 103.742 108.959 101.609 107.359 99.0753C104.026 93.342 99.7594 92.8087 97.8928 97.8753Z" fill="black"/>
<path d="M179.739 97C179.739 109.922 184.838 124.959 191.071 136.086C196.163 145.177 199.692 155.464 204.582 164.631C209.739 174.298 210.669 186.168 216.35 195.043" stroke="#468FB7" stroke-width="14" stroke-linecap="round"/>
<path d="M72 98.8157C72 109.673 72.3424 119.121 74.8088 129.681C79.2526 148.707 85.415 167.072 92.0487 185.359C97.1075 199.305 101.682 212.383 107.739 225" stroke="#468FB7" stroke-width="14" stroke-linecap="round"/>
<path d="M205.893 2.94199C190.826 7.47533 182.959 10.942 175.893 15.742L169.493 20.142L160.026 18.2753C147.759 16.0087 115.226 15.8753 99.8928 18.142L87.8928 20.0087L80.0261 15.2087C66.6928 7.20866 51.8928 2.00866 40.4261 1.34199L30.2928 0.80866L24.9594 6.00866C15.4928 14.942 11.0928 35.6087 13.7594 59.342C15.3594 73.4753 15.2261 74.6753 12.9594 78.142C9.75945 82.8087 3.89278 96.0087 1.75945 103.742C0.69278 107.475 0.0261132 117.742 0.0261132 130.409C-0.10722 149.475 0.159446 151.875 3.49278 161.342C11.0928 182.809 24.6928 201.342 41.4928 213.075C58.5595 224.942 67.0928 228.675 84.8261 231.609C122.293 238.009 166.559 236.142 190.559 226.942C200.559 223.075 216.959 212.542 225.626 204.542C240.693 190.409 248.293 177.342 253.493 156.142C260.026 129.742 257.759 106.275 246.826 83.742L241.226 72.2753L242.826 62.4087C247.093 35.0753 241.359 8.40866 229.893 2.27533C223.893 -0.924673 218.159 -0.79134 205.893 2.94199ZM224.159 11.0753C230.826 15.742 236.026 41.8753 232.693 54.142L231.093 60.0087L222.826 52.142C212.693 42.542 205.359 37.342 192.559 31.2087C187.226 28.542 182.426 26.142 182.159 25.742C180.293 23.8753 193.759 16.4087 206.559 12.2753C217.626 8.54199 220.426 8.40866 224.159 11.0753ZM52.9594 13.4753C62.1595 16.8087 73.8928 23.2087 73.8928 24.942C73.8928 25.4753 70.6928 27.2087 66.6928 28.942C56.5595 33.0753 41.8928 43.0753 32.6928 52.142C25.3594 59.342 24.8261 59.6087 24.0261 56.8087C23.6261 55.0753 23.2261 48.542 23.2261 42.2753C23.2261 29.6087 26.8261 15.342 30.9594 12.2753C34.4261 9.60866 43.4928 10.0087 52.9594 13.4753ZM149.493 26.4087C165.359 28.4087 179.359 33.8753 197.893 44.942C217.759 56.8087 228.159 68.142 238.026 88.542C248.159 109.475 249.626 132.409 242.559 158.275C238.826 172.009 236.959 175.875 226.693 189.475C215.626 204.409 197.093 215.342 171.093 222.275C156.559 226.142 154.293 226.409 131.493 226.409C82.2928 226.409 61.0928 219.742 36.8261 196.542C28.6928 188.809 18.6928 171.742 13.6261 156.942C9.75945 145.342 9.35945 143.075 9.35945 127.075C9.35945 105.742 11.2261 99.2087 22.1594 80.142C35.2261 57.4753 56.1595 40.942 83.3595 31.742C99.0928 26.4087 130.159 23.8753 149.493 26.4087Z" fill="black"/>
<path d="M64.4261 84.942C57.4928 92.0087 60.4261 105.209 69.8928 109.075C78.1594 112.542 87.4928 104.809 87.7594 94.4087C87.8928 86.6753 82.1594 81.0753 74.1594 81.0753C69.4928 81.0753 67.6261 81.8753 64.4261 84.942Z" fill="black"/>
<path d="M167.093 85.2087C162.293 90.4087 161.093 94.6753 163.226 99.8753C167.093 109.209 178.959 112.409 185.226 105.609C189.493 100.942 191.626 94.2753 190.026 90.2753C187.626 83.8753 183.493 81.0753 177.093 81.0753C171.893 81.0753 170.293 81.742 167.093 85.2087Z" fill="black"/>
<path d="M97.8928 97.8753C96.2928 101.875 98.8261 107.742 103.493 110.942C107.359 113.742 114.559 113.609 119.226 110.809C122.693 108.809 123.359 108.809 128.426 110.809C137.626 114.542 146.293 111.209 149.893 102.275C151.226 99.2087 151.226 98.0087 149.893 96.4087C147.093 93.0753 143.359 94.142 140.426 99.0753C136.693 105.342 132.159 105.209 128.693 98.6753C127.626 96.6753 125.893 95.742 123.226 95.742C120.959 95.742 119.226 96.2753 119.226 97.0753C119.226 99.0753 114.159 103.742 112.026 103.742C110.959 103.742 108.959 101.609 107.359 99.0753C104.026 93.342 99.7594 92.8087 97.8928 97.8753Z" fill="black"/>
<path d="M205.893 2.94199C190.826 7.47533 182.959 10.942 175.893 15.742L169.493 20.142L160.026 18.2753C147.759 16.0087 115.226 15.8753 99.8928 18.142L87.8928 20.0087L80.0261 15.2087C66.6928 7.20866 51.8928 2.00866 40.4261 1.34199L30.2928 0.80866L24.9594 6.00866C15.4928 14.942 11.0928 35.6087 13.7594 59.342C15.3594 73.4753 15.2261 74.6753 12.9594 78.142C9.75945 82.8087 3.89278 96.0087 1.75945 103.742C0.69278 107.475 0.0261132 117.742 0.0261132 130.409C-0.10722 149.475 0.159446 151.875 3.49278 161.342C11.0928 182.809 24.6928 201.342 41.4928 213.075C58.5595 224.942 67.0928 228.675 84.8261 231.609C122.293 238.009 166.559 236.142 190.559 226.942C200.559 223.075 216.959 212.542 225.626 204.542C240.693 190.409 248.293 177.342 253.493 156.142C260.026 129.742 257.759 106.275 246.826 83.742L241.226 72.2753L242.826 62.4087C247.093 35.0753 241.359 8.40866 229.893 2.27533C223.893 -0.924673 218.159 -0.79134 205.893 2.94199ZM224.159 11.0753C230.826 15.742 236.026 41.8753 232.693 54.142L231.093 60.0087L222.826 52.142C212.693 42.542 205.359 37.342 192.559 31.2087C187.226 28.542 182.426 26.142 182.159 25.742C180.293 23.8753 193.759 16.4087 206.559 12.2753C217.626 8.54199 220.426 8.40866 224.159 11.0753ZM52.9594 13.4753C62.1595 16.8087 73.8928 23.2087 73.8928 24.942C73.8928 25.4753 70.6928 27.2087 66.6928 28.942C56.5595 33.0753 41.8928 43.0753 32.6928 52.142C25.3594 59.342 24.8261 59.6087 24.0261 56.8087C23.6261 55.0753 23.2261 48.542 23.2261 42.2753C23.2261 29.6087 26.8261 15.342 30.9594 12.2753C34.4261 9.60866 43.4928 10.0087 52.9594 13.4753ZM149.493 26.4087C165.359 28.4087 179.359 33.8753 197.893 44.942C217.759 56.8087 228.159 68.142 238.026 88.542C248.159 109.475 249.626 132.409 242.559 158.275C238.826 172.009 236.959 175.875 226.693 189.475C215.626 204.409 197.093 215.342 171.093 222.275C156.559 226.142 154.293 226.409 131.493 226.409C82.2928 226.409 61.0928 219.742 36.8261 196.542C28.6928 188.809 18.6928 171.742 13.6261 156.942C9.75945 145.342 9.35945 143.075 9.35945 127.075C9.35945 105.742 11.2261 99.2087 22.1594 80.142C35.2261 57.4753 56.1595 40.942 83.3595 31.742C99.0928 26.4087 130.159 23.8753 149.493 26.4087Z" fill="black"/>
<path d="M64.4261 84.942C57.4928 92.0087 60.4261 105.209 69.8928 109.075C78.1594 112.542 87.4928 104.809 87.7594 94.4087C87.8928 86.6753 82.1594 81.0753 74.1594 81.0753C69.4928 81.0753 67.6261 81.8753 64.4261 84.942Z" fill="black"/>
<path d="M167.093 85.2087C162.293 90.4087 161.093 94.6753 163.226 99.8753C167.093 109.209 178.959 112.409 185.226 105.609C189.493 100.942 191.626 94.2753 190.026 90.2753C187.626 83.8753 183.493 81.0753 177.093 81.0753C171.893 81.0753 170.293 81.742 167.093 85.2087Z" fill="black"/>
<path d="M97.8928 97.8753C96.2928 101.875 98.8261 107.742 103.493 110.942C107.359 113.742 114.559 113.609 119.226 110.809C122.693 108.809 123.359 108.809 128.426 110.809C137.626 114.542 146.293 111.209 149.893 102.275C151.226 99.2087 151.226 98.0087 149.893 96.4087C147.093 93.0753 143.359 94.142 140.426 99.0753C136.693 105.342 132.159 105.209 128.693 98.6753C127.626 96.6753 125.893 95.742 123.226 95.742C120.959 95.742 119.226 96.2753 119.226 97.0753C119.226 99.0753 114.159 103.742 112.026 103.742C110.959 103.742 108.959 101.609 107.359 99.0753C104.026 93.342 99.7594 92.8087 97.8928 97.8753Z" fill="black"/>
</svg>
