<svg width="47" height="33" viewBox="0 0 47 33" fill="none" xmlns="http://www.w3.org/2000/svg">
<path d="M2.78909 30.7363C2.78909 30.7213 2.78909 30.6616 2.78909 30.6019C2.78909 30.6467 2.78909 30.6915 2.78909 30.7363ZM2.78909 30.7363C2.42401 31.3931 3.01075 30.1839 2.90644 30.8856M2.78909 30.7363C3.62356 30.4377 3.72787 29.4375 2.90644 30.8856M2.90644 30.8856C3.94952 30.8109 5.29249 31.0945 7.24827 30.8856M2.90644 30.8856C4.19726 30.9154 5.42288 30.8706 7.24827 30.8856M7.24827 30.8856C9.77775 30.1392 12.6462 28.094 11.7205 25.7653M7.24827 30.8856C11.3293 29.975 12.9331 29.9302 11.7205 25.7653M11.7205 25.7653C11.903 23.7052 11.8639 21.3317 11.7205 19.8986M11.7205 25.7653C11.6423 24.0784 11.7466 22.4811 11.7205 19.8986M11.7205 19.8986C11.5771 13.2706 14.7846 9.43415 21.3169 8.91167M11.7205 19.8986C12.6071 11.0762 14.0935 7.2696 21.3169 8.91167M21.3169 8.91167C28.0448 8.00107 34.9291 9.88199 43 8.91167M21.3169 8.91167C29.0748 8.40412 38.1235 8.46383 43 8.91167M43 8.91167C39.4796 10.4194 33.5861 12.3152 28.0708 14.2259C32.556 12.3301 37.5107 11.0911 43 8.91167ZM43 8.91167C39.636 7.89657 33.9379 4.9408 28.5791 2C32.9079 3.89584 37.7194 6.47842 43 8.91167ZM8.88832 8.12899C6.61961 7.75579 3.75113 7.97971 1 8.12899C3.24263 8.21856 5.61565 8.33798 8.88832 8.12899ZM8.88832 8.12899C13.9473 8.42755 17.9501 10.0398 16.7636 17.1604M8.88832 8.12899C15.4989 7.12882 16.8158 11.5923 16.7636 17.1604M16.7636 17.1604C16.7506 17.2798 16.7766 17.444 16.7636 17.6381M16.7636 17.1604C16.7766 17.2947 16.7636 17.444 16.7636 17.6381M16.7636 17.6381C16.6463 22.9225 19.5538 26.7142 25.0692 27.1322M16.7636 17.6381C17.5981 22.9673 20.1406 25.4901 25.0692 27.1322M25.0692 27.1322C31.5232 26.3261 37.6905 27.3711 40.7936 27.1322M25.0692 27.1322C29.2284 26.6097 32.8401 26.8635 40.7936 27.1322M40.7936 27.1322C37.5601 27.9682 33.3877 29.7446 29.3848 31.4315C32.6184 30.3268 36.0476 29.2371 40.7936 27.1322ZM40.7936 27.1322C37.6122 24.908 33.5314 23.5197 29.6329 22.0269C32.8273 23.669 36.178 25.3558 40.7936 27.1322Z" stroke="#1E1E1E" stroke-width="2.5" stroke-linecap="round"/>
</svg>
