<svg width="87" height="87" viewBox="0 0 87 87" fill="none" xmlns="http://www.w3.org/2000/svg">
<path d="M10.875 21.75H18.125H76.125" stroke="black" stroke-width="4" stroke-linecap="round" stroke-linejoin="round"/>
<path d="M68.875 21.75V72.5C68.875 74.4228 68.1112 76.2669 66.7515 77.6265C65.3919 78.9862 63.5478 79.75 61.625 79.75H25.375C23.4522 79.75 21.6081 78.9862 20.2485 77.6265C18.8888 76.2669 18.125 74.4228 18.125 72.5V29.5C18.125 26.4734 18.125 24.7766 18.125 21.75M29 21.75V14.5C29 12.5772 29.1404 11.8596 30.5 10.5C31.8596 9.14036 34.3272 7.25 36.25 7.25H49C50.9228 7.25 54.5169 8.01384 55.8765 9.37348C57.2362 10.7331 58 12.5772 58 14.5V21.75" fill="white"/>
<path d="M68.875 21.75V72.5C68.875 74.4228 68.1112 76.2669 66.7515 77.6265C65.3919 78.9862 63.5478 79.75 61.625 79.75H25.375C23.4522 79.75 21.6081 78.9862 20.2485 77.6265C18.8888 76.2669 18.125 74.4228 18.125 72.5V29.5C18.125 26.4734 18.125 24.7766 18.125 21.75M29 21.75V14.5C29 12.5772 29.1404 11.8596 30.5 10.5C31.8596 9.14036 34.3272 7.25 36.25 7.25H49C50.9228 7.25 54.5169 8.01384 55.8765 9.37348C57.2362 10.7331 58 12.5772 58 14.5V21.75" stroke="black" stroke-width="4" stroke-linecap="round" stroke-linejoin="round"/>
<path d="M23 22.5L20.5 24L19 28" stroke="black"/>
<path d="M29 12L36 8.5L40 8" stroke="black"/>
<path d="M11 22H76" stroke="black" stroke-width="4"/>
<path d="M35.1102 35.8444C35.0702 48.2628 35.0965 35.2375 35.1102 35.8444ZM35.1102 35.8444C35.3001 44.2803 36.1428 59.556 35.919 66.2279L35.1102 35.8444ZM68.9999 69.3557L66.9999 75L62.4999 79.5M33.4999 35C33.28 41.8706 33.6198 61.0649 33.7598 67.8953L33.4999 35ZM53.671 35.1747C53.491 42.206 53.4711 62.2239 53.671 69.3557V35.1747ZM55.1905 37.1836C55.3104 43.9136 55.7702 61.2596 55.6303 67.7686L55.1905 37.1836Z" stroke="black" stroke-width="4" stroke-linecap="round"/>
</svg>
