<svg width="75" height="75" viewBox="0 0 75 75" fill="none" xmlns="http://www.w3.org/2000/svg">
<path d="M34.375 15.625C33.25 15.25 18.75 28.125 18.75 28.125H9H6.25V46.875H18.75L34.375 59.375C34.375 59.375 35.5 16 34.375 15.625Z" fill="white"/>
<path d="M6.25 35L7 29L9 28.125M9 28.125H18.75C18.75 28.125 33.25 15.25 34.375 15.625C35.5 16 34.375 59.375 34.375 59.375L18.75 46.875H6.25V28.125H9ZM18 28.125L33.5 18" stroke="black" stroke-width="2" stroke-linecap="round" stroke-linejoin="round"/>
<path d="M28 54.5L33 56L34 52.5" stroke="black"/>
<path d="M44.0001 25C50.7427 26.5 49.397 45.4657 43 48.5" stroke="#1E1E1E" stroke-width="3" stroke-linecap="round"/>
<path d="M48.7441 19C61.5 21 59 52 51 54" stroke="#1E1E1E" stroke-width="3" stroke-linecap="round"/>
</svg>
